<?xml version="1.0" encoding="utf-8"?>
<!-- Generator: Adobe Illustrator 21.0.0, SVG Export Plug-In . SVG Version: 6.00 Build 0)  -->
<svg version="1.1" id="Слой_1" xmlns="http://www.w3.org/2000/svg" xmlns:xlink="http://www.w3.org/1999/xlink" x="0px" y="0px"
	 viewBox="0 0 600 600" style="enable-background:new 0 0 600 600;" xml:space="preserve">
<style type="text/css">
	.st0{opacity:0.3;fill:#FFB6B9;enable-background:new    ;}
</style>
<path class="st0" d="M790.7,428.4v-1.6c-8.6,5-17.3,10-19.4,11.3c-14,8.7-24.5,16.6-32.5,25.2c-7.4,7.9-16.3,13.3-29.5,18.6
	c-2,0.8-4,1.6-6.3,2.5l-6.3,2.4c-12.9,5-19.5,8.3-25,13.3c-5.5,5.1-12.7,8.7-22.1,11.6c-2.6,0.8-5.3,1.6-8.6,2.4l-8,2
	c-7,1.8-10.9,3.2-13.8,5c-4.1,2.5-8.7,4.3-16.7,6.6c-2.1,0.7-4.2,1.2-6.3,1.8c-2.6,0.8-4.7,1.3-6.9,2c-5,1.4-9.9,3.3-14.8,5.3
	c-3.6,1.4-7.2,5.1-11.6,11.1c-2.9,4-5.5,8-8,12.1c-7.6,12-10,15.4-13.4,19.1c-1.8,2-4,3.8-6.1,5.5c-3,2.5-13.7,9.9-15.5,11.5
	c-2,1.4-3.6,3.3-4.9,5.4c-1.6,3-2.5,6.1-3.7,11.7c-2.9,14-4.6,19.5-10.8,29.1c-5.4,8.3-9,13-12.9,17.1c-0.7,0.7-1.3,1.3-2,2l-5,4.7
	c-2.2,2.1-4.2,4.1-6.5,6.5c-6.1,6.3-10.5,14-13,22.3c-3.3,10.7-3.6,20.4-2.4,35.8c0.7,7.6,0.7,8.4,0.7,10.8c0,13.8,0.1,23.1,0.8,34
	c0.3,5.3,0.8,10.3,1.3,14.8h1.2c-1.4-12.7-2-28.7-2-48.8c0-2.5,0-3.2-0.7-10.9c-1.2-15.3-0.9-24.9,2.2-35.3
	c2.5-8.2,6.9-15.7,12.7-21.7c2.2-2.4,4.2-4.3,6.3-6.5c0.8-0.8,4.1-4,5-4.7c0.7-0.7,1.3-1.3,2-2c4.1-4.2,7.8-9,13.2-17.3
	c6.3-9.8,8-15.4,10.9-29.5c1.2-5.5,2-8.4,3.6-11.3c0.9-1.6,2.4-3.3,4.5-5.1c1.8-1.4,12.4-9,15.5-11.5c2.2-1.8,4.3-3.7,6.2-5.7
	c3.6-3.8,6.1-7.2,13.7-19.4c2.5-4.1,5.3-8.2,8-12c4.2-5.7,7.8-9.2,11.1-10.7c4.6-2,9.4-3.7,14.6-5.3c3.3-1.1,6.7-2,10-2.9l3.2-0.9
	c8.2-2.4,12.9-4.2,17.1-6.7c2.8-1.7,6.7-3,13.6-4.7l8-2c3.3-0.8,5.9-1.6,8.6-2.4c9.5-3,16.9-6.7,22.5-11.9c5.4-4.9,11.9-8.2,24.6-13
	l6.3-2.4c2.5-0.9,4.5-1.7,6.3-2.5c13.3-5.4,22.5-10.9,30-19c7.9-8.6,18.4-16.3,32.3-24.9C774.1,438.2,782.4,433.3,790.7,428.4v-85.1
	c-5.3,10.7-11.2,19.6-16.7,23.6c-3.3,2.4-7.1,5.3-11.9,9.1c-2.8,2.2-5.5,4.3-8.2,6.6l-1.7,1.3c-2.1,1.7-4.2,3.4-6.5,5.1
	c-9.9,7.9-17,13.2-23.2,17.4c-4.1,2.8-5.1,3.7-10.7,9.4c-7.6,8-15.4,11.3-38.3,14.5c-14.9,2-26.4,6.5-40.6,14.6
	c-2.1,1.2-9.6,5.7-9.2,5.4c-3.6,2.1-6.2,3.6-8.7,4.9c-7.4,3.7-13.8,5.5-20.7,5.5c-22.5,0-54.6,15.2-68,30
	c-15.8,17.7-41.4,36.5-59.6,41.1c-9.8,2.5-15.7,9.2-18.4,19.4c-1.7,5.8-2.1,10.9-2.1,18.2c0,1.1,0,1.3,0.3,4.7
	c0.7,6.9,0.5,11.5-1.1,17.5c-2,8.2-6.5,16.6-14,25.6c-18.3,21.9-30.2,61.4-30.2,94.5c0,3.2,0,5.7,0.1,11.6c0.1,14.2,0.1,20.8-0.3,29
	c-0.8,14.8-2.8,27.3-6.6,38.6h-1.3c3.8-11.3,5.9-23.9,6.6-38.6c0.4-8,0.4-14.6,0.3-28.9c0-5.9-0.1-8.4-0.1-11.6
	c0-33.3,12-73.1,30.4-95.3c7.4-8.8,11.7-17.1,13.7-25c1.4-5.8,1.6-10.4,0.9-17c-0.3-3.6-0.3-3.8-0.3-4.9c0-7.4,0.4-12.7,2.1-18.6
	c3-10.5,9.2-17.7,19.5-20.3c17.9-4.5,43.2-23.2,59-40.6c13.7-15.2,46.1-30.6,69.1-30.6c6.7,0,12.9-1.7,20.2-5.4
	c2.5-1.3,5.1-2.6,8.7-4.7c-0.4,0.3,7-4.2,9.2-5.4c14.2-8.2,26-12.8,41-14.8c22.7-3,30.2-6.3,37.7-14c5.5-5.8,6.6-6.9,10.8-9.6
	c6.2-4.1,13.2-9.4,23.1-17.3c2.1-1.7,4.2-3.4,6.5-5.1l1.7-1.3c2.8-2.2,5.5-4.3,8.2-6.6c4.9-3.8,8.6-6.7,12-9.2
	c5.8-4.2,12.1-14,17.5-25.6L790.7,428.4L790.7,428.4z M790.7,275.3c-0.8,0-1.7,0.1-2.6,0.1c-8,0.8-18.2,4.5-28.7,9.8
	c-4.7,2.4-11.2,3.6-18.7,3.6c-6.2,0-12.8-0.7-19.4-1.7c-2.2-0.4-4.3-0.8-6.2-1.2c-1.6-0.4-3.2-0.5-4.6-0.8c-7.2-0.7-14.6-1.1-22-1.2
	c-13.7-0.3-22.7,0.9-23.7,3.6c-0.5,1.3,0.8,3.4,4,6.5c1.3,1.3,2.9,2.6,5.3,4.7c2.1,1.7,4.2,3.6,6.3,5.3c1.8,1.6,4.1,2.5,7.2,3.3
	c0.9,0.3,1.2,0.3,3.4,0.7c4.6,0.9,6.6,1.6,8.2,3.4c1.8,2.4,1.8,5.9-0.3,11.7c-3.2,9-7.5,13.3-13.4,13.6c-4.7,0.3-10-1.7-19.1-6.7
	c-5.9-3.3-9-9.6-10.9-20.2c-0.3-1.2-0.4-2.4-0.7-3.8l-0.5-3.7c-1.3-8.7-2.5-12.1-4.9-13.3c-1.1-0.5-2.1-0.9-3.2-1.3
	c-3-1.1-6.1-1.3-10.7-1.2c-3,0.1-19.4,1.3-18.2,1.2c-27,1.8-38,6.7-48.9,19.8c-2,2.4-3.8,4.7-5.5,7.1l-3,4.1l-3.3,4.3
	c-5.4,7.1-9.4,11.2-13.7,14.6c-0.8,0.7-1.7,1.3-2.8,2.1l-5.4,3.8c-2.4,1.7-4.6,3.4-6.9,5.3c-5.9,4.9-12.8,11.3-21.3,20.3
	c-10.8,11.3-15.5,17.8-15.4,21.1c0.1,2.1,2.1,2.8,9,3.2c2.1,0.1,2.8,0.1,4,0.3c4,0.3,6.7,0.9,9,2.2c9.9,5.4,15.3,9.6,18.4,15.3
	c4.3,8,1.1,17-11.7,26.8c-10.9,8.3-14.6,13.7-14.9,19.8c-0.1,1.6,0,2.5,0.4,5.8c0.9,8.6,0.3,14-3.7,22.9c-1.4,3.4-3.3,6.9-5.5,9.9
	c-3.7,5.3-7.2,7.5-14,10.1c-0.5,0.3-4.3,1.6-5.7,2.1c-2.4,0.9-4.5,1.8-6.6,2.8c-5.5,2.6-11.1,6.1-17.3,10.8
	c-11.1,8.6-17.4,19.2-21.1,33.1c-1.4,5.5-2,9-3.7,20c-1.7,11.3-2.9,16.6-5.4,21.7c-2.8,5.7-15.7,35.1-17.1,38.1
	c-2.6,5.9-5.5,11.9-8.4,17.7c-5.4,10.7-10,18.6-14.1,23.5c-7.1,8.6-11.9,19-18.2,37.4c-0.8,2.5-1.7,4.9-2.5,7.4
	c-2.4,7-4,11.3-5.7,15.5c-8,20.2-33.5,34.7-61.3,34.7c-14.8,0-27.1-3.6-40.9-11.2c-7.4-4.1-6.1-3.2-29.4-19.1
	c-18.8-12.9-23.3-14.1-27-9.1c-0.5,0.7-2.4,3.6-2.4,3.7c-2,2.8-4.2,5.4-6.5,7.8c-0.9,1.1-7.2,7.8-9.2,9.9c-3.2,3.4-5.7,6.3-7.9,9.1
	c-2.5,3.2-4.7,6.5-6.7,10.1c-1.7,3.4-2.5,6.9-3.6,14c-0.3,1.4-0.4,2.8-0.7,4.2h-1.3l0.7-4.3c1.1-7.2,1.8-10.8,3.7-14.4
	c2-3.7,4.2-7.1,6.9-10.3c2.2-2.8,4.7-5.8,7.9-9.2c1.8-2.1,8.2-8.8,9.2-9.9c2.4-2.4,4.5-4.9,6.3-7.6c0,0,2-3,2.5-3.7
	c4.2-5.9,9.4-4.5,28.7,8.8c23.3,15.9,21.9,15,29.3,19.1c13.6,7.5,25.7,11.1,40.2,11.1c27.1,0,52.2-14.2,60-33.9
	c2-5.1,3.8-10.3,5.5-15.5c0.8-2.5,1.7-4.9,2.5-7.4c6.3-18.7,11.2-29.1,18.4-37.8c4-4.9,8.7-12.7,14-23.2c2.6-5.1,5.3-10.9,8.4-17.7
	c1.3-3,14.4-32.4,17.1-38.1c2.5-5,3.7-10.3,5.3-21.3c1.6-11.1,2.2-14.6,3.7-20.2c3.7-14.1,10.1-24.9,21.5-33.7
	c5.4-4.3,11.3-8,17.5-11.1c2.2-1.1,4.3-2,6.7-2.9c1.2-0.5,5.1-1.8,5.7-2.1c6.6-2.5,9.8-4.6,13.3-9.6c1.8-2.5,3.6-5.7,5.4-9.8
	c4-8.7,4.5-14,3.6-22.3c-0.3-2-0.4-4-0.4-6.1c0.3-6.5,4.2-12.1,15.4-20.7c12.3-9.4,15.4-17.5,11.3-25c-2.9-5.4-8.2-9.4-17.8-14.8
	c-2.1-1.2-4.7-1.7-8.4-2.1c-1.1-0.1-1.7-0.1-4-0.3c-7.6-0.4-10-1.2-10.1-4.3c-0.1-3.7,4.6-10.4,15.8-22c8.6-9,15.5-15.4,21.5-20.4
	c2.4-2,4.5-3.6,6.9-5.3l5.4-3.8c1.1-0.8,2-1.4,2.8-2.1c4.3-3.4,8.2-7.4,13.4-14.4c1.1-1.4,2.2-2.9,3.3-4.3l3-4.1
	c2.4-3.2,4-5.3,5.7-7.2c11.2-13.4,22.4-18.4,49.2-20.2c-0.5,0,15.8-1.2,18.8-1.3c4.7-0.1,7.9,0.3,11.2,1.3c1.1,0.4,2.1,0.8,3.3,1.3
	c3,1.4,4.2,5.1,5.7,14.4l0.5,3.7c0.3,1.4,0.4,2.6,0.7,3.7c1.8,10.1,4.7,16.2,10.3,19.2c9,4.9,14,6.7,18.4,6.5
	c5.3-0.3,9.2-4.2,12.3-12.8c2-5.3,2-8.6,0.4-10.4c-1.2-1.4-3-2.1-7.4-3c-1.2-0.3-2.4-0.4-3.6-0.8c-3.3-0.8-5.8-1.8-7.8-3.6
	c-2.1-1.8-4.2-3.6-6.3-5.3c-1.8-1.6-3.7-3.2-5.4-4.7c-3.6-3.4-5.1-5.8-4.3-7.8c1.3-3.4,10.3-4.6,24.9-4.5c7.4,0.1,14.8,0.5,22,1.2
	c3.7,0.5,4.2,0.7,4.9,0.8c1.8,0.4,4,0.8,6.1,1.2c6.3,1.2,12.8,1.7,19.2,1.7c7.4,0,13.4-1.2,18.1-3.4c10.7-5.4,21-9.1,29.3-10
	c0.9-0.1,1.8-0.1,2.6-0.1L790.7,275.3L790.7,275.3z M790.7,142.2v2c-11.3,21.2-22.8,39-31.2,47.3c-4.2,4.2-10,6.5-17.8,7.4
	c-5.9,0.7-10.9,0.5-25.3-0.3c-13-0.8-20.2-0.5-27,1.1c-6.5,1.6-13,2.5-19.8,2.8l-2.9,0.1c-16.5,1.1-25.6,2.4-43.1,7.5
	c-5.9,1.7-12.3,3.3-18.8,4.6c-14.2,2.6-28.6,4.5-43,5.3c-10,0.5-17.4,0.8-26.6,0.8c-7.1,0-15.7,2.1-23.7,6.9
	c-10.9,6.5-19.9,17-25.7,32.3c-1.7,4.5-3.7,8.8-6.1,12.9c-4.7,8.2-9.1,11.9-17.7,16.1l-5.3,2.6c-7.2,3.6-14,8-20,13.4
	c-10.8,9.6-18.1,21.9-29.7,46.9l-2.8,5.9c-9.6,20.7-15.2,30.7-22.9,39.4c-10.1,11.5-26.6,19-53.1,26.5c-5.8,1.6-25,6.7-25.3,6.7
	c-9.1,2.5-15.4,4.3-20.6,6.5c-14,5.5-24.6,13.8-48,34.9l-2.2,2c-11.3,10.3-17.7,15.7-24.8,21c-5.1,3.8-10.5,7.5-17.1,11.7
	c-2.8,1.7-13.6,8.7-16.2,10.4c-15.2,9.9-24.4,17.1-32.4,26.5c-3.2,3.7-6.1,7.5-8.4,11.7c-5.4,9.1-8.3,17.3-12.1,33.1l-2,8.3
	c-0.8,3.3-1.6,5.9-2.2,8.7c-4,14.1-9.1,22.9-19.5,35.4l-5.4,6.6c-1.8,2.2-3.7,4.6-5.5,7c-2,2.5-3.4,5.3-4.5,8.3
	c-1.6,4.2-2,7.8-2.5,15.7c-0.8,13.2-1.8,19.8-6.1,29.9c-2.1,4.9-7.5,18.4-8.4,20.8c-1.4,3.3-2.9,6.6-4.7,9.8
	c-3.8,6.7-8.8,13.3-17.3,22.4c-7.9,8.4-11.7,14.4-14,21.1c-0.7,2.1-1.3,4.2-1.8,6.3l-0.7,2.4h-1.3l0.7-2.8c0.7-2.8,1.2-4.6,1.8-6.5
	c2.4-6.9,6.3-13,14.2-21.6c8.4-9,13.3-15.4,17.1-22.1c1.7-3.2,3.3-6.3,4.6-9.6c1.1-2.4,6.3-15.9,8.4-20.8c4.2-9.9,5.3-16.3,6.1-29.4
	c0.4-8,0.9-11.7,2.5-16.1c1.2-3,2.8-6.1,4.7-8.6c1.7-2.2,3.4-4.5,5.5-7l5.4-6.6c10.3-12.5,15.4-21.1,19.2-34.9
	c0.8-2.6,1.4-5.4,2.2-8.7l2-8.3c4-15.8,6.7-24.2,12.3-33.5c2.4-4.1,5.3-7.9,8.6-11.9c8.2-9.4,17.4-16.7,32.7-26.8
	c2.8-1.7,13.6-8.7,16.2-10.4c6.6-4.2,11.9-7.9,17-11.7c7.1-5.3,13.4-10.7,24.6-20.8l2.2-2c23.5-21.2,34.3-29.5,48.4-35.2
	c5.3-2.1,11.6-4.1,20.8-6.6c0.3-0.1,19.6-5.1,25.3-6.7c26.2-7.4,42.6-14.9,52.4-26.1c7.6-8.6,13-18.4,22.7-39l2.8-5.9
	c11.7-25.2,19-37.6,30-47.3c6.1-5.5,12.9-10.1,20.3-13.7l5.3-2.6c8.3-4.1,12.5-7.6,17.1-15.5c2.2-4.1,4.2-8.3,5.9-12.8
	c6.1-15.5,15.2-26.4,26.4-32.9c8.2-4.9,17-7,24.4-7c9.2,0,16.6-0.1,26.6-0.8c14.4-0.8,28.6-2.5,42.8-5.3c6.6-1.3,12.9-2.8,18.7-4.5
	c17.7-5.3,26.9-6.6,43.4-7.6l2.9-0.1c7.6-0.5,12.9-1.2,19.5-2.8c7-1.6,14.2-1.8,29.8-0.9c11.9,0.7,16.9,0.8,22.7,0.1
	c7.5-0.8,13-3,17.1-7C767.1,182.2,778.9,163.8,790.7,142.2L790.7,142.2z M790.7,735.5c-1.7-6.1-2.9-13.8-4.3-26.6l-0.3-2.6l-0.3-2.6
	c-2.4-20.7-4.1-29-7.2-32.3c-3.3-3.3-4-6.6-3.3-11.3c0.1-0.8,0.3-1.4,0.5-2.8c0.9-4.6,1.1-6.6,0.1-9c-1.2-3.2-4.3-5.8-10.3-8.3
	c-6.7-2.8-8.6-6.3-6.5-11.1c0.9-2,2.4-4,4.6-6.6c1.3-1.6,7.2-7.9,6.7-7.2c8.2-8.8,11.9-14.9,11.9-21.7c-0.1-6.7,3-13.2,8.6-17v1.7
	c-4.7,3.7-7.4,9.4-7.2,15.3c0,7.2-3.8,13.6-12.1,22.7c0.5-0.5-5.3,5.7-6.7,7.2c-2.2,2.5-3.7,4.5-4.5,6.3c-1.8,4-0.3,6.9,5.8,9.4
	c6.2,2.6,9.6,5.5,10.9,9c1.1,2.6,0.9,4.9,0,9.8c-0.3,1.3-0.4,2-0.5,2.8c-0.7,4.3,0,7.4,2.9,10.3c3.6,3.6,5.3,11.9,7.6,33.1l0.3,2.6
	l0.3,2.6c1.1,9.2,2,15.9,3,21.1L790.7,735.5L790.7,735.5z M790.7,653.7c-1.8-4.1-5.8-13-6.6-14.8c-1.3-3.3-1.6-5-1.2-6.9
	c0.3-1.1,2.6-6.2,3-7c2-4.7,3.6-9.8,4.6-14.8v5.3c-0.9,3.4-2.1,6.7-3.4,10c-0.4,1.1-2.8,5.9-3,6.9c-0.4,1.4-0.1,2.9,1.2,6.1
	c0.5,1.3,3.3,7.5,5.3,12L790.7,653.7L790.7,653.7z M790.7,541.5c-2.2,2.2-4.9,3.8-8.4,5.4c-0.3,0.1-18.4,7.2-26.9,11.1
	c-12.3,5.7-22,7.8-30.3,6.9c-6.7-0.7-11.9-2.9-19.5-7.8l-4.2-2.8c-2.4-1.6-4.7-3-7.1-4.3c-5.3-2.9-4.2-7.6,2-13.8
	c4.9-4.9,12.7-10.4,24.6-18.2l5.9-3.7c23.7-14.9,24-15.2,29.4-19.4c14.8-11.9,26-18.4,34.7-19.9v1.3c-8.4,1.4-19.2,7.9-33.9,19.6
	c-5.4,4.3-5.7,4.5-29.5,19.5c-2,1.2-4,2.5-5.9,3.7c-12,7.6-19.6,13.2-24.5,18.1c-5.7,5.7-6.6,9.4-2.2,11.7c2.2,1.2,4.3,2.5,7.2,4.3
	l4.2,2.8c7.4,4.7,12.5,6.9,18.8,7.6c8,0.8,17.5-1.2,29.7-6.7c8.6-4,26.6-11.1,26.9-11.1c4-1.8,6.7-3.6,9-6.2L790.7,541.5
	L790.7,541.5z M790.7,487v1.3c-8.7,0.4-15.9,4.1-26,12l-6.1,4.9c-1.8,1.4-3.8,2.9-5.8,4.1c-1.1,0.7-7.2,4.3-8.2,5
	c-4.3,2.6-8.2,5-11.7,7.4c-3.7,2.5-7.2,5-10.8,7.8c-6.1,4.9-9.8,9.1-10.5,12.4c-0.8,3.6,2,5.9,9.2,7.2c14.1,2.4,27.5,0,40.2-6.1
	c8.4-4.1,15.9-9.5,22.5-16.1c2.8-3,5.1-6.3,7.1-9.8v2.5c-1.7,2.9-3.8,5.7-6.1,8.2c-6.6,6.7-14.4,12.3-22.9,16.3
	c-12.8,6.2-26.5,8.6-40.9,6.2c-8-1.3-11.5-4.3-10.3-8.8c0.8-3.6,4.6-7.9,10.9-13c3-2.5,6.7-5.1,10.8-7.9c3.6-2.4,7.4-4.7,11.7-7.4
	c0.9-0.5,7.1-4.2,8.2-5c1.7-1.1,3.4-2.4,5.7-4.1c1.1-0.8,5.1-4.1,6.1-4.9C774.1,491.2,781.8,487.3,790.7,487L790.7,487z
	 M790.7,283.2v1.3c-2.4-0.3-5.7,0.3-10.3,2.1c-13.2,5-18.2,6.7-25.3,9c-2.4,0.8-3.4,1.1-5.1,1.6c-2,0.7-4.2,1.1-8.8,1.6
	c-1.2,0.1-2.4,0.3-3.4,0.4c-10.3,1.2-14.9,3.3-14.9,8c0,5.8,3.8,17.4,10.5,34c1.3,3.3,2.2,6.6,3,10c0.4,1.6,0.8,3,1.1,4.6
	c2.5,10,4.2,14.1,7.4,15.4c2.9,1.2,6.2,0.8,9.9-0.9c4.6-2.2,9.5-6.5,14.8-12.5c2-2.2,4-4.6,6.1-7.4l4.2-5.4
	c3.4-4.2,8-16.1,11.1-26.6v4.5c-3,9.5-7,19.1-10,22.9c-0.5,0.7-3.6,4.6-4.2,5.4c-2.1,2.8-4.1,5.1-6.1,7.4
	c-5.4,6.1-10.4,10.4-15.2,12.8c-4,1.8-7.6,2.4-10.9,0.9c-3.7-1.4-5.5-5.7-8.2-16.3c-0.4-1.6-0.8-3-1.1-4.6c-1.1-4.2-2-7.2-3-9.9
	c-6.7-16.9-10.5-28.5-10.5-34.5c0-5.8,5-8,16.1-9.4c1.2-0.1,2.4-0.3,3.6-0.4c4.6-0.5,6.9-0.8,8.6-1.4c1.7-0.5,2.8-0.9,5.1-1.7
	c7-2.2,12-4,25.2-8.8C784.5,283.6,788.1,283,790.7,283.2L790.7,283.2z M0.1,384.8c13.3-14.9,23.9-30.6,30.4-46.6
	c4.3-10.7,8-21.2,14.2-40.3l2.1-6.3c8.6-26.2,13.3-39.3,19.5-52.2c8-16.7,16.5-27.9,26.8-33.6c8.8-5,13.4-10.4,16.1-17.3
	c1.1-2.8,1.8-5.7,2.5-8.7c1.6-6.9,2.8-10,5.1-13.7c3.2-4.7,8.3-8.6,15.9-11.9c20.8-8.7,22-9.2,23.7-11.9c0.9-1.3,1.1-2.9,0.9-5.9
	c0-0.9-0.3-5-0.3-5.3c-0.1-2.4-0.3-4.9-0.3-7.2c0-13.2,0.3-15,3.2-17.4c0.7-0.5,1.4-1.1,2.8-1.7c0.4-0.1,2.9-1.4,3.7-2
	c4.2-2.2,8.2-4.9,12-7.8c2.8-2,3.4-2.8,10.5-10.4c5-5.4,8.2-8.4,11.9-10.7c4.7-3,9.5-4.1,14.4-2.8c5.8,1.6,14.2,2.6,24.8,3.3
	c9.1,0.5,17,0.7,28.9,0.7c6.5,0,11.9,0.7,20.3,2.1c10.3,1.7,12.3,2,16.3,2c5.4,0,9.8-1.2,14.1-4c6.7-4.2,10.7-6.2,14.8-6.9
	c4.7-0.8,6.3-0.7,21.9,2.8c22.8,4.9,40.7,1.8,54.2-12.8c6.7-7.2,7.2-11.7,4.6-19.5c-1.1-3.2-1.3-4.1-1.6-5.7
	c-0.4-3.3,0.7-6.2,3.6-9.1c3.4-3.4,6.2-12.1,8.2-24.1h2.6c-2.1,12.8-5,21.9-9,26c-2.4,2.4-3.2,4.5-2.8,7c0.1,1.3,0.4,2.1,1.4,5.1
	c2.9,8.6,2.4,14.1-5.1,22.1c-14.2,15.4-33.1,18.6-56.7,13.6c-15-3.3-16.5-3.4-20.8-2.8c-3.7,0.7-7.4,2.4-13.8,6.5
	c-4.6,2.9-10,4.5-15.5,4.3c-4.2,0-6.3-0.3-16.7-2.1c-8.3-1.4-13.6-2-19.8-2c-12,0-19.9-0.1-29.1-0.7c-10.7-0.7-19.2-1.7-25.3-3.3
	c-7.4-2-13.4,1.8-23.6,12.8c-7.2,7.8-8,8.6-10.9,10.8c-4,3-8,5.7-12.4,7.9c-0.9,0.5-3.4,1.7-3.7,2c-1.1,0.5-1.7,1.1-2.4,1.4
	c-2,1.6-2.1,3.2-2.1,15.3c0,2.4,0.1,4.6,0.3,7.1c0,0.3,0.3,4.3,0.3,5.3c0.1,3.7-0.1,5.7-1.4,7.5c-2.2,3.3-3,3.7-25,12.8
	c-7.2,3-11.9,6.6-14.8,10.8c-2.2,3.3-3.3,6.2-4.7,12.8c-1.1,4.6-1.6,6.5-2.5,9c-2.9,7.5-8,13.4-17.3,18.7
	c-9.6,5.4-17.8,16.2-25.7,32.5c-6.1,12.7-10.8,25.7-19.4,51.8l-2.1,6.3c-6.3,19.1-9.9,29.7-14.4,40.5c-6.9,17.3-18.2,33.9-32.7,49.7
	V384.8L0.1,384.8z M0.1,487.6V487h1.3c8.3,0,9.9,6.9,6.1,17.7c-2,5.3-4.3,10.1-7.4,14.9V517c2.4-4.1,4.5-8.3,6.2-12.8
	c3.6-10,2.2-15.8-4.9-15.8c-0.4,0-0.9,0-1.3,0V427c6.1-3.6,12.1-7.2,18.1-10.9c18.1-12.5,39.3-49.5,39.3-70.6
	c0-23.9,28.5-95.7,42.4-104.6c16.7-10.7,42.4-36.9,47.2-49.8c2.5-7,7.2-9.6,19-12.4c8-1.8,11.3-3.2,14.1-6.3c2-2.2,3.6-6.3,5.7-13.6
	c0.3-1.1,2.5-8.8,3.2-11.2c4.7-15.9,9.6-24.4,17.8-26.9c3.3-1.1,4-1.3,12.8-4.9c9.9-4,15.8-5.8,22.5-6.5c9-0.9,17.3,1.1,25.8,6.2
	c7.1,4.3,16.1,6.2,26.6,6.1c7.9-0.1,16.1-1.4,26.1-3.7c2.4-0.5,9.8-2.2,10.9-2.5c3.6-0.8,5.7-1.2,7.2-1.2c6.6,0,11.7-0.1,18.7-0.4
	c10.4-0.4,20.6-1.2,30-2.5c11.2-1.4,21-3.6,28.9-6.3c24.9-8.7,43-24.1,44.4-36.4c0.4-3.4,0.5-4,3.7-14.6c3-10.5,4.2-17,3.6-24
	c-0.3-2.9-0.9-5.8-2-8.4c-2-5.1-3.4-12.4-4.5-21.3h1.2c1.1,8.6,2.5,15.4,4.6,20.8c1.1,2.8,1.7,5.8,2,8.8c0.7,7.2-0.5,13.8-3.7,24.5
	c-3.2,10.7-3.3,11.2-3.6,14.5c-1.4,12.9-19.9,28.6-45.2,37.4c-8,2.8-17.8,4.9-29.1,6.5c-9.5,1.3-19.6,2.1-30,2.5
	c-7,0.3-12.3,0.4-18.7,0.4c-1.3,0-3.4,0.4-7,1.2c-1.2,0.3-8.4,2-10.9,2.5c-10.1,2.2-18.3,3.6-26.4,3.7c-10.7,0.3-19.9-1.7-27.3-6.2
	c-8.2-5-16.3-6.9-24.9-5.9c-6.6,0.7-12.4,2.5-22.1,6.5c-9,3.6-9.6,3.8-12.9,4.9c-7.5,2.4-12.3,10.5-16.9,26
	c-0.7,2.4-2.9,10.1-3.2,11.2c-2.2,7.5-3.8,11.6-5.9,14.1c-2.9,3.4-6.3,4.7-15.8,7c-10.3,2.4-14.6,4.9-17,11.2
	c-4.9,13.2-30.7,39.7-47.7,50.3c-14.1,8.4-42.3,79.9-42.3,103.3c0,21.5-21.5,59-39.8,71.7c-2.8,2-10.8,6.7-18.8,11.5v-1.6L0.1,487.6
	L0.1,487.6z M0.1,258.7v-1.4c9.8-5,19.2-13.4,28.7-25c5-6.1,18.7-24.8,20.8-27.1c2.4-2.6,5.4-5.3,9.8-8.4c1.4-1.1,6.5-4.7,7.2-5.3
	c12.4-9.1,18.4-15.8,21.1-25.6c1.1-4,2-9,3.3-16.2c0.3-1.8,2.6-16.5,3.4-20.8c3.7-22,7.5-35.2,13.2-42.2
	c14.2-17.4,26.2-36.2,26.2-43.1c0-3.3,0.4-4.5,8-20.7c0.9-2,1.6-3.6,2.4-5.1c3.3-7.6,5.1-13.2,5.4-17.7h1.3
	c-0.3,4.6-2.2,10.4-5.5,18.2c-0.7,1.6-1.4,3.2-2.4,5.1c-7.2,15.8-7.8,17.1-7.8,20.2c0,7.2-12,26.1-26.5,43.9
	c-5.5,6.7-9.2,19.9-13,41.6c-0.8,4.3-3,18.8-3.4,20.8c-1.2,7.4-2.2,12.4-3.3,16.3c-2.8,10.1-9,17-21.5,26.2l-7.2,5.3
	c-4.3,3.2-7.2,5.7-9.6,8.3c-2,2.2-15.7,21-20.8,27C20,245,10.2,253.7,0.1,258.7L0.1,258.7z M0.1,735.5v-5.7c0.7,3.2,1.3,5.7,2.1,8.2
	c2.6,7.9,6.1,10.9,10.8,8.7c25-11.7,44.4-31.8,44.4-52.1c0-21.3,8.4-42.2,22.5-61c2.5-3.3,4.9-5.8,7.2-7.9c0.9-0.8,1.8-1.6,3-2.4
	l2.6-1.8c4.9-3.6,7-7,9.4-16.6c1.1-4.1,1.8-6.6,5.5-17.5l0.8-2.5c4.2-12.7,6.1-19.8,5.5-24.5c-0.7-5.8-5-6.9-14.9-2.1
	c-4,1.8-7.9,3.6-12.1,4.9c-18.3,6.2-35.6,7.6-56.3,7.1h-2.6h-2c-6.9,0-13.6,1.3-19.9,4c-2.4,0.9-4.5,2.2-6.5,3.8v-1.7
	c1.8-1.3,3.8-2.5,6.1-3.4c7.1-2.9,14.6-4.2,22.3-4h2.6c20.6,0.5,37.7-1.1,55.7-7.1c4.1-1.3,8-3,11.9-4.7c10.5-5,16.1-3.8,16.7,3.2
	c0.5,5.1-1.2,12.3-5.5,25.2l-0.8,2.5c-3.7,10.8-4.5,13.3-5.5,17.4c-2.4,9.9-4.7,13.6-9.9,17.4l-2.6,1.8c-1.1,0.8-2,1.4-2.9,2.4
	c-2.6,2.2-5,4.9-7.1,7.6c-13.7,18.3-22,38.9-22,60c0,21-19.8,41.5-45.2,53.4c-5.7,2.6-9.8-0.9-12.7-9.5
	C0.6,737.5,0.3,736.5,0.1,735.5L0.1,735.5z M0.1,653.7v-3.3l2,4.3c2.8,6.3,4.6,13.6,5.7,22.1c0.9,7,1.1,12.3,1.3,24.4
	c0.3,12.3,0.7,16.9,2.1,19.8c1.7,3.4,4.9,3,10.9-2c22.5-18.8,28.7-30.2,28.7-50.9c0-9.5,1.4-16.3,4.9-23.3c3-6.2,4.9-8.7,17.7-25.8
	c3-4.1,6.3-8,10-11.6c1.4-1.4,3-2.8,4.6-4.1c0.5-0.4,0.8-0.7,1.2-0.9c1.4-1.2,2.6-2.6,3.4-4.3c1.2-2.5,2.2-5.1,3-7.8l0.5-1.6
	l0.5-1.4c0.4-1.2,0.7-2,0.9-2.9c0.5-2,0.9-3.6,1.2-4.9c0.5-2.9,0.1-4.6-1.1-5.4c-3-2.1-12.3-0.3-31.4,6.5
	c-12.5,4.5-21.2,5.5-36.8,5.7c-10.1,0.1-13.7,0.5-17.4,2.8c-4.6,2.8-7.6,8.4-10,18.8c-0.7,2.9-1.3,5.5-2,7.9v-5.3l0.7-2.9
	c2.4-10.7,5.7-16.6,10.5-19.6c4-2.5,7.8-2.9,18.2-3c15.3-0.1,23.9-1.1,36.2-5.5c19.6-7,29-8.8,32.5-6.3c1.8,1.2,2.2,3.4,1.7,6.7
	c-0.3,1.7-0.8,3.3-1.2,5l-0.9,2.9l-0.5,1.4l-0.5,1.6c-0.8,2.8-1.8,5.4-3,8c-1.1,2-2.1,3.3-3.8,4.7l-1.2,1.1l-1.3,1.1
	c-1.2,0.9-2.2,1.8-3.3,2.9c-3.6,3.6-6.9,7.4-9.9,11.5c-12.8,17-14.6,19.6-17.5,25.7c-3.3,6.7-4.7,13.4-4.7,22.7
	c0,21.1-6.3,32.8-29.3,51.9c-6.6,5.5-10.8,5.9-12.9,1.6c-1.6-3.3-2-7.8-2.2-20.4c-0.3-12.1-0.5-17.4-1.3-24.2
	c-1.1-8.3-2.8-15.5-5.5-21.7L0.1,653.7L0.1,653.7z M499.9,0h1.3l2,7c4.3,15.3,6.5,25.4,7,36.6c0.7,14.5-2,28.1-8.7,41.1
	c-10.3,19.9-27,34.9-47.7,44.9c-16.3,7.9-34.4,12.1-47.7,12.1c-9,0-22.7,1.8-49.2,6.1l-3,0.5c-32.3,5.3-41.6,6.6-49.4,6.6
	c-4.6,0-5.4-0.1-25.7-3.7c-4.7-0.8-8.3-1.4-11.9-2c-26.6-4-40.9-1.6-42.2,10.4c-0.1,1.1-0.3,2.2-0.4,3.7L224,167
	c-1.4,14.4-2.6,20.7-5.7,26.4c-3.8,7-10.3,10.4-20.6,10.4c-13.4,0-17,0.8-20.4,4.2c0.7-0.7-6.6,7.8-10.8,11.5
	c-3.7,3.3-18.8,16.6-20.8,18.2c-2.9,2.5-5.8,5.1-8.6,7.8c-9.2,8.6-15.5,15.5-19.2,21.2c-7.8,12.3-13.8,23.7-15.4,31.8
	c-2.2,10.9,4.9,12.5,25,1.6c19.2-10.4,38.7-20,58.6-28.9c4.6-2.1,18.4-8.2,20.7-9.1c6.7-2.9,10.9-5,14.2-6.7l2.5-1.4l2.9-1.6
	c2.4-1.2,4.5-2.4,6.6-3.4c23.9-11.5,45.5-13.8,66.3-1.6c30.2,17.5,50.5,48.8,50.5,74.3c0,25.2-0.9,33.1-6.9,43.8
	c-1.8,3.3-4.1,6.5-6.5,9.4c-8.6,10.3-15.5,21.3-16.9,28.1c-1.6,8.3,6.2,9.2,26.6,0c17.5-8,29.5-19.8,37.6-34.7
	c3.3-6.3,6.1-13,8-19.9c1.2-4,4.2-15.3,4.5-16.5c0.5-2.2,1.3-4.3,2.4-6.3c9.9-19.6,27.8-40.2,47.7-49c10-4.5,17.1-12.7,25.6-27.4
	c1.1-2,5.7-10,6.7-12.1c4.6-8,8.2-12.8,12.4-15.8c13.3-9.8,37.8-14.6,66.3-14.6c9.9,0,21.7-1.6,36.2-4.7c6.6-1.4,13.2-3,19.8-4.6
	c-1.7,0.4,20.4-5.3,25.6-6.5c18.6-4.3,54.2-6.6,84.5-6.6c22.9,0,36.6-12.1,50.7-51c8.7-24,8.7-34.8,3.6-45.2l-1.6-3.2
	c-1.3-2.5-2-5.3-2-8c0-5.3,0-5.3,3.3-32.4c0.7-4.9,1.1-8.8,1.4-12.7c1.2-11.1,1.8-20,1.8-27.4c0-1.2,0-2.5,0-4h1.3c0,1.4,0,2.8,0,4
	c0,7.4-0.7,16.3-1.8,27.5c-0.4,3.8-0.9,7.8-1.4,12.8c-3.2,26.8-3.2,26.8-3.2,32c0,2.6,0.7,4.7,2,7.5c0.3,0.7,1.6,3,1.6,3.2
	c5.4,10.8,5.4,22-3.6,46.3c-14.2,39.3-28.5,51.8-52.1,51.8c-30.3,0-65.6,2.2-84.2,6.6c-5.1,1.2-27.3,6.9-25.6,6.5
	c-6.6,1.7-13.2,3.2-19.8,4.6c-14.5,3.2-26.5,4.7-36.5,4.7c-28.2,0-52.4,4.9-65.5,14.4c-4,2.9-7.4,7.5-12,15.4
	c-1.2,2-5.7,10.1-6.7,12.1c-8.6,14.9-15.8,23.3-26.2,27.9c-19.6,8.7-37.4,29-47.2,48.5c-0.9,2-1.7,4.1-2.2,6.2
	c-0.3,1.1-3.3,12.5-4.5,16.5c-2,7-4.7,13.7-8.2,20.2c-8.2,15.3-20.3,27.1-38.2,35.3c-21.2,9.8-30.3,8.6-28.5-1.3
	c1.3-7,8.4-18.2,17.1-28.6c2.4-2.9,4.5-5.9,6.3-9.2c5.8-10.4,6.7-18.2,6.7-43.1c0-25-20-55.9-49.7-73.3c-20.6-12-41.6-9.8-65.1,1.6
	c-3.2,1.6-6.3,3.2-9.4,4.9l-2.5,1.4c-4.6,2.5-9.5,4.7-14.4,6.9c-2.1,0.9-16.1,7.1-20.7,9.1c-19.9,8.8-39.4,18.4-58.6,28.9
	c-21,11.5-29.5,9.5-27-3c1.6-8.2,7.6-19.8,15.5-32.2c3.7-5.9,10.1-12.9,19.5-21.5c2.6-2.5,5.4-5,8.7-7.8c2-1.7,17.1-14.9,20.8-18.2
	c4.1-3.7,11.3-12,10.7-11.5c3.7-3.7,7.6-4.6,21.3-4.6c9.9,0,15.8-3.2,19.5-9.8c2.9-5.4,4.1-11.6,5.5-25.8l0.4-3.6l0.4-3.7
	c0.8-7.1,5.9-11.2,14.8-12.7c7.1-1.2,16.5-0.7,28.9,1.2c3.6,0.5,7.2,1.2,11.9,2c20.2,3.6,21.1,3.7,25.6,3.7c7.5,0,17-1.3,49.2-6.6
	l3-0.5c26.5-4.3,40.2-6.1,49.3-6.1c13.2,0,31-4.2,47.2-12c20.6-9.9,37-24.6,47.2-44.4c6.6-12.9,9.2-26.1,8.6-40.5
	c-0.5-11.1-2.6-21.2-6.9-36.4L499.9,0z M517.8,0h1.3c1.1,5.1,2.5,11.5,4.6,19.6c4.7,18.6,4.1,35.6-1.1,51.1
	c-3.2,10-8.3,19.2-15,27.3c-7.6,9.1-16.2,17.4-25.4,24.8c-14.9,11.9-30.8,20.4-47.4,24.2c-9.9,2.2-19.8,4-29.8,5.4
	c-4.2,0.5-8.4,1.1-13.6,1.7l-12.4,1.4c-15.2,1.8-23.1,3.4-28.5,5.9c-12.3,5.5-37.4,7.9-64.8,7.9c-1.8,0-3.7-0.1-5.7-0.5
	c-3.4-0.5-6.6-1.3-12-3c-9.6-2.9-12.7-3.7-16.6-3.4c-5.1,0.3-8.7,3-11.2,9.1c-2.5,6.2-3.2,9.9-4.3,19.8
	c-1.4,11.9-3.8,15.9-13.2,18.8c-3,0.9-6.1,2.1-9,3.6c-0.8,0.4-1.6,0.8-2.4,1.3l-1.7,1.2c-2.5,1.4-5.1,2-12.1,2
	c-4.2,0-11.6-0.8-12.5-0.5c-1.6,0.4-1.1-0.1-9.4,8.2c-2,2-4.6,4.2-8.3,7.1c-2,1.6-9.5,7.1-10.4,7.9c-6.6,5-10.9,8.7-14.6,12.4
	c-6.5,6.6-9,12-7.4,16.7c1.7,4.9,5.4,5.8,11.7,3.7c3.6-1.3,7-2.8,10.3-4.6c2-1.1,10.3-5.4,12.4-6.6c5.3-2.8,10.7-5.3,16.2-7.5
	c4.9-2,9.8-4.1,14.5-6.3c2.6-1.3,14.1-6.9,17.1-8.2c5.8-2.8,10.7-5,15.3-7c22.5-9.6,38.6-13,49.7-8.7l7.1,2.8c3,1.2,5.5,2.1,7.9,3.2
	c5.8,2.4,11.6,5,17.3,7.9c24.1,12.7,40.1,29.1,45.9,52.6c9.2,36.8,4.7,60-10.7,82.2c-5.3,7.6-4.6,12.1,0.1,11.9
	c5.4-0.4,13.4-6.6,19.9-16.5c4.1-6.3,6.7-13.8,10.5-28.3l2.2-8.4c0.9-3.3,1.6-5.9,2.4-8.6c6.5-21.9,14.5-36,28.5-45.9
	c9.4-6.7,31.2-20.4,33.6-22.1c8.8-6.3,13.8-12.4,18.8-23.7c10.1-22.9,27.8-32,58.6-32c12.4,0,23.6-1.4,38.9-4.6
	c2.8-0.5,5.4-1.1,8.2-1.7c3.2-0.7,5.4-1.1,7.5-1.4c5.3-0.9,9.2-1.4,12.7-1.4c5.8,0,12.4-1.3,41.4-7.9l4-0.9
	c21.5-4.9,33.7-7.1,41.8-7.1c2,0,3.2,0,8.4,0.1c10.3,0.1,16.2,0.1,22.8-0.3c21.6-1.4,35.2-7.1,39.3-19.2c1.3-4,2.9-7.9,4.6-11.6
	c-0.3,0.4,3-6.6,3.8-8.4c7.1-16.2,7.4-28.9-1.8-51.9c-3.4-8.8-5.8-17.9-7-27.3c-2.1-15.8-1.8-30.4,0.1-53.1l0.3-2.8h1.3l-0.3,2.9
	c-2,22.5-2.2,37.2-0.1,52.8c1.2,9.2,3.4,18.3,6.9,27c9.4,23.5,9.1,36.5,1.8,53c-0.8,1.8-4.1,8.8-3.8,8.4c-1.7,3.7-3.3,7.6-4.6,11.5
	c-4.2,12.8-18.3,18.6-40.5,20c-6.7,0.4-12.7,0.5-22.9,0.3c-5.3-0.1-6.3-0.1-8.4-0.1c-7.8,0-20,2.2-41.4,7l-4,0.9
	c-29.3,6.6-35.6,7.9-41.6,7.9c-3.3,0-7.2,0.5-12.4,1.4c-2.1,0.4-4.2,0.8-7.4,1.4c-2.8,0.5-5.4,1.2-8.2,1.7
	c-15.4,3.2-26.8,4.6-39.1,4.6c-30.3,0-47.4,8.8-57.3,31.2c-5.1,11.6-10.3,17.9-19.4,24.4c-2.4,1.7-24.2,15.4-33.6,22.1
	c-13.6,9.6-21.5,23.6-27.9,45.1c-0.8,2.6-1.4,5.3-2.4,8.6l-2.2,8.4c-4,14.8-6.6,22.3-10.8,28.7c-6.6,10.3-15,16.7-21,17.1
	c-6.2,0.4-7-5.5-1.2-13.8c15.2-21.9,19.5-44.8,10.4-81.2c-5.8-22.9-21.3-39.1-45.2-51.7c-5.3-2.8-10.8-5.3-17.1-7.9
	c-2.4-1.1-4.9-2-7.9-3.2l-7.1-2.8c-10.5-4.1-26.4-0.8-48.6,8.7c-4.6,2-9.5,4.2-15.3,7l-17.1,8.2c-6.2,2.9-10.8,5-14.6,6.5
	c-5.5,2.1-10.9,4.6-16.1,7.4c-2.1,1.1-10.4,5.5-12.4,6.6c-3.3,1.8-6.9,3.4-10.4,4.6c-7,2.4-11.3,1.2-13.4-4.5
	c-2-5.3,0.9-11.2,7.6-18.1c3.7-3.7,8.2-7.5,14.8-12.5c1.1-0.8,8.4-6.5,10.4-7.9c2.9-2.1,5.7-4.5,8.2-7c8.8-8.8,8-8.2,10-8.6
	c1.2-0.3,8.8,0.5,12.8,0.5c6.9,0,9.2-0.4,11.5-1.8l1.7-1.1c0.8-0.5,1.6-0.9,2.4-1.4c2.9-1.4,6.1-2.6,9.2-3.6
	c8.7-2.6,10.8-6.3,12.3-17.8c1.2-9.9,2-13.8,4.5-20c2.6-6.5,6.6-9.6,12.3-9.9c4.2-0.3,7.2,0.4,17.1,3.4c3.8,1.3,7.9,2.2,11.9,3
	c1.8,0.3,3.7,0.4,5.4,0.4c27.3,0,52.3-2.4,64.3-7.9c5.7-2.6,13.6-4.1,28.9-5.9l12.4-1.4c5.1-0.7,9.4-1.2,13.6-1.7
	c10.8-1.4,20.3-3.2,29.7-5.4c16.3-3.8,32-12.3,46.8-24c9.2-7.4,17.7-15.5,25.3-24.5c6.6-7.9,11.6-17,14.6-26.8
	c5-15.3,5.7-32.2,1.1-50.3C520.9,13.3,519.3,6.8,517.8,0L517.8,0z M667.8,0h1.7c-0.7,0.9-1.2,1.6-1.6,2c-5.3,6.6-9.1,10.4-12.9,12.7
	c-2,1.2-4.2,1.8-6.6,1.8c-3.2,0-5.5,0.9-8.8,2.9l-3.4,2.2c-5.8,3.7-10.5,5.4-17.9,5.4c-7.4,0-13.2-1.7-21.2-5.3
	c-1.1-0.4-2-0.9-3-1.4l-2.9-1.3c-2.1-0.9-3.8-1.6-5.5-2c-1.4-0.4-2.9-0.5-4.3-0.5c-3,0-5.7-0.9-14.5-4.5l-2.1-0.8
	c-6.6-2.6-10.7-3.7-13.8-3.6c-3.8,0.3-5.8,2.6-5.8,8c0,27.4-6.9,66.4-15.9,75.5c-10,10-34.9,31.2-44.9,38.3
	C466.7,142,443,156.2,426,162.6c-5.7,2.1-11.6,4-17.5,5.3c-4.3,1.1-8.7,1.8-14.8,2.9c-0.7,0.1-11.6,2-15.2,2.6
	c-6.5,1.2-12.3,2.2-18.4,3.7c-27.1,5.9-33.1,6.6-50.2,6.6c-3.3,0-3.8-0.1-18.6-2.6c-3.2-0.5-5.7-0.9-8-1.3
	c-10.7-1.6-18.2-1.8-23.2-0.3c-5.9,1.8-7.8,6.1-4.9,13.8c2.6,7,6.3,11.3,11.6,14.1c4.3,2.2,9,3.4,18.2,4.9c12.4,2,14.4,2.4,20.4,3.8
	c8.6,2.1,16.9,5.4,24.5,9.8c10.9,6.1,19.2,15.2,26.4,27.5c3.6,6.2,12.5,25.4,13.8,27.9c4.5,7.8,8.3,8.7,14.4,2.6
	c6.6-6.5,13.7-11.1,27.8-18.6c0.7-0.3,2.8-1.4,2.8-1.4c10.5-5.5,15.7-8.6,21-12.5c6.7-5.1,11.5-10.7,14.2-17.3
	c11.2-26.6,27.4-43.9,42.8-43.9h7.2c13.8,0.1,22.9,0,32.8-0.4c18.1-0.8,31.4-2.8,38.7-6.2c7.8-3.6,17.7-7.2,31.9-11.9
	c4.6-1.4,8.3-2.8,16.7-5.4c10.1-3.2,14.6-4.6,20-6.5c5-1.7,9.9-3.3,14.9-4.9c4.9-1.6,7.9-2.6,10.5-3.7c3-1.1,5.9-2.4,8.8-3.8
	c2.5-1.3,5-2.8,7.8-4.6c4.6-3,8.2-4.1,15.8-5.4l1.6-0.3c7.5-1.3,11.9-3,16.9-7.4c10.3-9.2,11.3-30.6,5-58.6
	c-2.2-10.1-2.8-25.4-2.1-46.8c0.3-8.2,0.7-16.3,1.1-24.5h1.3l-0.3,4.1c-0.4,8.4-0.7,14.5-0.9,20.6c-0.7,21.2-0.1,36.5,2.1,46.4
	c6.3,28.6,5.3,50.3-5.5,60c-5.1,4.6-9.8,6.3-17.4,7.8l-1.6,0.3c-7.6,1.3-10.9,2.4-15.4,5.3c-2.5,1.7-5.1,3.3-7.9,4.7
	c-2.9,1.4-5.9,2.8-9,4c-2.8,1.1-5.8,2.1-10.7,3.7c-5,1.6-9.9,3.3-14.9,4.9c-5.4,1.8-9.9,3.3-20,6.5c-8.4,2.6-12.1,4-16.7,5.4
	c-14.1,4.6-24.1,8.3-31.8,11.9c-7.6,3.6-21.1,5.4-39.3,6.3c-10,0.4-19,0.5-32.9,0.4h-7.2c-14.8,0-30.6,16.9-41.5,43.1
	c-2.9,6.9-7.6,12.5-14.6,17.8c-5.3,4.1-10.5,7.1-21.1,12.7l-2.8,1.4c-14.1,7.4-21.1,11.9-27.5,18.3c-6.7,6.7-11.6,5.4-16.5-2.9
	c-1.4-2.5-10.4-21.7-13.8-27.9c-7-12.1-15.2-21.1-25.8-27c-7.6-4.2-15.8-7.5-24.2-9.6c-5.9-1.6-7.9-1.8-20.3-3.8
	c-9.5-1.4-14.1-2.6-18.6-5c-5.5-2.9-9.5-7.6-12.3-14.9c-3.2-8.4-1.1-13.6,5.7-15.5c5.3-1.6,12.9-1.4,23.9,0.3
	c2.4,0.4,4.9,0.8,8.2,1.3c14.5,2.5,15.2,2.6,18.3,2.6c17.1,0,22.9-0.7,49.9-6.6c6.2-1.3,12.1-2.5,18.4-3.7
	c3.6-0.7,14.5-2.5,15.2-2.6c6.1-1.1,10.5-2,14.8-2.9c5.9-1.4,11.6-3,17.4-5.3c16.9-6.3,40.6-20.6,57.9-32.8
	c9.9-7,34.8-28.2,44.7-38.1c8.7-8.8,15.5-47.7,15.5-74.6c0-6.1,2.5-9.1,7.1-9.5c3.4-0.3,7.6,0.9,14.5,3.6l2.1,0.8
	c8.6,3.4,11.2,4.3,14,4.3c1.4,0,3,0.3,4.6,0.7c1.7,0.4,3.6,1.1,5.7,2c1.4,0.7,2.9,1.3,4.3,2l1.4,0.7c7.9,3.6,13.4,5.1,20.7,5.1
	c7.1,0,11.7-1.6,17.3-5.1c0.3-0.1,2.8-1.8,3.6-2.2c3.4-2.1,6.1-3.2,9.5-3.2c2,0,3.8-0.5,5.9-1.7c3.7-2.1,7.5-5.8,12.5-12.3L667.8,0
	L667.8,0z M427.7,790.7h-2.6c0.7-4,1.2-8.2,1.7-12.8c0.5-5.4,1.1-10.8,1.3-16.1c0.1-1.8,0.1-3.6-0.5-9.6c-0.7-2.5-1.2-5.4-1.8-8.6
	c-2.6-14.9-3.6-30.2-1.4-44.5c1.1-8.2,3.3-16.2,6.9-23.7c4.2-8.8,9.9-16.9,16.6-24c4.5-4.7,7.2-7.2,15.5-14.2c5.9-5,8.4-7.4,9.9-9.9
	c0.8-1.4,1.3-2.8,1.3-4.1c0-2.4,0-2.2-1.1-12.1c-0.5-4.9-0.8-8.3-0.9-11.9c-0.7-15.9,2.1-25.8,10.7-28.7c21-7,34.1-15.9,44.1-33.6
	c12.5-22.3,33.9-41.5,47.3-41.5c16.3,0,26.4-2.6,38.7-11.6c9-6.5,12.5-8.7,16.5-9.9c2.9-0.8,5-0.9,12-0.9c2.5,0,4.6-1.1,7.4-3.4
	c1.4-1.3,6.7-6.7,7.4-7.4c7.9-7.8,15.8-11.6,27.4-11.6c3.3,0,5.9,0,9.6,0.1c9.9,0.3,11.7,0.3,14.9-0.9c4-1.4,7.2-4,19.5-14.8
	c10.5-9.4,14.1-11.7,30.2-21.7c1.8-1.2,3.4-2.1,4.9-3.2c4.5-2.9,8.6-6.2,12.5-9.9c5.4-5.1,10.5-10.4,15.3-15.7v4
	c-4.3,4.7-8.8,9.2-13.6,13.7c-4.2,4-8.2,7.1-12.8,10.1c-1.4,1.1-3,2-5,3.2c-15.8,9.9-19.4,12.3-29.8,21.5
	c-12.5,11.1-15.8,13.6-20.3,15.2c-3.6,1.3-5.5,1.4-15.8,1.1c-3.7-0.1-6.3-0.1-9.6-0.1c-10.9,0-18.2,3.6-25.6,10.8
	c-0.5,0.5-5.9,6.1-7.5,7.5c-3.2,2.8-5.9,4.1-9.1,4.1c-6.7,0-8.7,0.1-11.3,0.9c-3.6,1.1-7,3.2-15.7,9.4
	c-12.9,9.4-23.6,12.1-40.3,12.1c-12.1,0-32.9,18.7-44.9,40.2c-10.3,18.3-24,27.7-45.5,34.9c-7,2.4-9.5,11.2-9,26.1
	c0.1,3.4,0.4,6.9,0.9,11.6c1.1,10,1.1,10,1.1,12.4c0,1.8-0.5,3.6-1.6,5.4c-1.7,2.9-4.3,5.4-10.4,10.5c-8.2,6.9-11.1,9.4-15.4,14
	c-6.6,6.9-12,14.8-16.1,23.3c-3.4,7.2-5.5,15-6.6,22.9c-2,14.1-1.2,29.1,1.4,43.8c0.5,3.2,1.2,5.9,1.7,8.4c0.3,0.9,0.4,1.6,0.8,5.4
	c-0.3,7.1-0.8,14.2-1.6,21.2C428.9,782.7,428.3,786.9,427.7,790.7L427.7,790.7z M410,790.7h-1.3l0.1-0.4c4.1-9.5,5.7-15.5,5.7-24.6
	c0-4.7-0.1-6.5-1.1-20.7c-1.1-15.8-1.3-25.8-0.7-37.3c0.8-15.2,3.2-29.1,7.6-42.4c1.7-5,3.7-9.9,5.9-14.6c4.6-9.4,9-16.3,13.7-21.9
	c1.8-2.1,3.7-4.1,5.8-6.1c0.5-0.5,4-3.7,4.9-4.6c7.5-7.4,9.9-15.2,9.9-38.5c0-24.8,3.8-31.4,20.8-37.2c1.4-0.5,2.5-0.9,3.7-1.3
	c2.8-1.1,5.4-2.2,8-3.6c6.6-3.4,12.7-8.2,19-15c33.6-36.4,48.9-46.4,74.3-46.4c10.9,0,19.1-2.6,29-8.3c2.4-1.3,18.2-11.6,24-14.9
	c3.7-2.1,7.5-4,11.3-5.8c10.4-4.7,18.4-5.9,35.1-6.3c9.9-0.3,14.1-0.7,18.8-2.1c5.9-1.8,10.7-5.3,14.4-11.1c2.9-4.5,9-9.4,19.4-15.9
	c2.1-1.3,4.3-2.6,7.5-4.6c12.5-7.8,15.3-9.4,19.5-12.7c7-5.3,12.3-11.1,18.1-19.5c2.5-3.8,5-7.6,7.4-11.6v2.5
	c-2.6,4.2-4.5,7.1-6.3,9.8c-5.8,8.6-11.2,14.4-18.3,19.8c-4.3,3.3-7,5-19.6,12.7c-2.5,1.6-5,3-7.4,4.6c-10.1,6.5-16.2,11.2-19,15.5
	c-4,6.1-8.8,9.8-15.2,11.7c-4.9,1.4-9.1,1.8-19.1,2.1c-16.5,0.4-24.2,1.6-34.5,6.2c-3.8,1.7-7.6,3.7-11.3,5.8
	c-5.7,3.2-21.5,13.4-23.9,14.9c-10,5.8-18.4,8.4-29.7,8.4c-24.9,0-39.9,9.8-73.3,45.9c-6.5,7-12.8,11.9-19.4,15.3
	c-2.6,1.3-5.3,2.5-8.2,3.7c-1.2,0.4-2.2,0.8-7.1,2.5c-6.7,2.4-9.8,4.2-12.3,8.4c-2.9,5-4.3,13-4.3,26.4c0,23.6-2.5,31.8-10.3,39.4
	c-0.9,0.9-4.3,4.1-4.9,4.6c-2,1.8-3.8,3.8-5.7,5.9c-4.6,5.4-9.1,12.3-13.6,21.6c-2.2,4.7-4.2,9.5-5.9,14.5c-4.5,13.2-6.9,27-7.6,42
	c-0.5,11.3-0.3,21.3,0.7,37.2c0.9,14.2,1.1,15.9,1.1,20.7C415.8,774,414.5,780,410,790.7L410,790.7z M443.1,790.7h-1.3
	c0-6.2,0.1-12.4,0.4-19.8c0.4-8.4-0.5-15.5-3.3-32.2l-0.4-2.5c-2.8-16.5-3.7-25.4-2.6-34.9c1.3-12.1,6.3-22,15.8-29.9
	c29-24,39.3-39.8,39.3-58.8c0-3.4-0.4-6.3-1.3-10.8c-1.3-6.3-1.4-7.5-1.3-10c0.3-3.4,1.7-6.2,4.7-8.8c3.6-3.2,9.2-6.1,18.1-9.2
	c12.8-4.6,20.4-12.1,32-28.5l2.4-3.3c5.9-8.3,9.4-12.7,13.7-16.9c5.7-5.4,11.9-9,19.1-10.8c17.5-4.3,26.9-7.2,33.3-10
	c2.4-1.1,4.7-2.2,7-3.6c1.4-0.8,2.4-1.3,5.5-3.4c3.6-2.2,6.9-2.8,15-3c7.1-0.3,10.4-0.5,14.5-1.8c4.9-1.6,9.2-4.3,12.5-8.2
	c6.5-7,13.2-10,23.5-11.7c1.4-0.3,2.5-0.4,5.1-0.8c9.1-1.3,13-2.2,17.8-4.7c5.9-3.3,9-5.8,31-26l4.1-3.8
	c12.8-11.5,21.2-18.2,28.2-21.7c5.5-2.8,10-6.2,14.8-11.3v2c-4.5,4.7-8.8,7.9-14.2,10.5c-6.9,3.4-15.3,10.1-27.9,21.5l-4.1,3.8
	c-22.1,20.3-25,22.8-31.2,26.1c-4.9,2.6-9,3.7-18.2,4.9c-2.6,0.4-3.7,0.5-5,0.8c-10,1.7-16.5,4.6-22.7,11.3c-3.6,4-8,7-13.2,8.6
	c-4.2,1.3-7.5,1.7-14.8,2c-7.9,0.3-11.1,0.8-14.4,2.8c-1.8,1.2-3.7,2.4-5.5,3.4c-2.2,1.3-4.6,2.5-7.1,3.7
	c-6.6,2.9-15.9,5.8-33.6,10.1c-12.8,3.2-20.2,10-32.2,27.1l-2.4,3.3c-11.7,16.5-19.5,24.1-32.7,28.9c-8.7,3.2-14.4,6.1-17.7,9
	c-2.8,2.5-4,4.9-4.2,7.9c-0.1,2.4,0,3.4,1.3,9.6c0.9,4.5,1.3,7.5,1.3,11.1c0,19.5-10.4,35.6-39.8,59.8c-9.2,7.6-14,17.1-15.3,29
	c-1.1,9.2-0.1,18.1,2.6,34.5l0.4,2.4c2.8,16.7,3.7,23.9,3.3,32.4C443.2,778.3,443.1,784.4,443.1,790.7L443.1,790.7z M126.4,790.7
	h-2.6c0.9-5,1.4-11.6,2.1-21.1c0.3-4.1,0.4-5.4,0.5-7.4c1.7-23.1,5.3-35.7,15.2-43.8c6.2-5,9.5-11.7,11.5-21.1
	c0.7-3.3,0.9-5.1,1.7-12.1c0.9-7.2,1.6-10.7,2.9-13.7c1.8-4.1,5-6.2,9.8-6.2c18.8,0,50.7,12,70.6,26.6c11.5,8.3,28.1,17.5,41.8,22.5
	c17.1,6.2,28.9,5.8,32.7-2.2c2.2-4.7,2.5-5.4,3.4-7.6c3.8-8.8,6.2-16.1,6.9-23.1c0.3-2.9,0.3-5.5,0-8.2c-0.4-3.7-1.8-5.9-5.4-9.8
	l-1.7-1.8c-1.2-1.2-2.2-2.4-3.2-3.7c-1.2-1.7-2.4-3.4-3.3-5.4l-1.4-2.8c-2.1-4.1-3.6-6.1-5.4-7.4c-7-4.6-19.5-7.2-37.7-9
	c-4-0.4-7.9-0.7-11.9-0.9l-2.9-0.3c-12.7-0.9-19.9-2.1-25.2-4.2c-18.4-7.8-45.6-34.8-45.6-48.6c0-7,2.2-12.5,7.2-18.6
	c2.6-3.2,14.6-15.4,16.9-17.8c5.9-6.6,13.4-12.5,23.3-19.4c3.7-2.5,19.5-12.7,23.1-15.2c3-2.1,5.8-4.5,8.3-7.1c2-2,9.2-9.4,9.4-9.6
	c9.5-9.6,16.7-15.3,26-19c4.5-1.7,10.7-3.7,22.9-7.1c5.1-1.4,10.4-2.9,15.5-4.3c5.5-1.6,11.2-3.2,16.7-4.9
	c26.9-8.2,44.8-15.9,53.8-24.2c11.5-10.8,15.5-18.2,20.7-34.3c2.6-8.2,4.1-11.9,6.7-16.7c12.5-23.3,37.8-51.9,57.3-59.8
	c18.6-7.6,25.6-15.4,25.6-23.9c0-3.8,3.6-11.1,9-18.1c6.3-8.2,14-15,22.1-18.7c16.5-7.6,44.1-13.3,62.5-13.3c7,0,12.9-2,21.6-6.5
	c12.1-6.2,13.3-6.7,17.9-6.7c13.7,0,42.3-3.4,60.4-7.9l5.1-1.3l4.6-1.2c3.4-0.9,5.7-1.4,7.8-1.8c5.1-1.2,9-1.6,12.7-1.6
	c3.6,0.1,7.2,0.7,11.5,2c6.1,1.8,18.1-1.2,30.2-7.5c4.6-2.4,8.8-5.1,12.9-8.2v3.2c-14.6,10.7-34,18.1-43.9,15
	c-3.4-1.1-7.1-1.7-10.7-1.8c-3.4-0.1-7.1,0.4-12,1.4c-4.1,0.9-8.2,2-12.3,3l-5.1,1.3c-18.3,4.6-47,7.9-60.9,7.9
	c-4,0-5.1,0.5-16.7,6.5c-9.1,4.6-15.3,6.7-22.8,6.7c-17.9,0-45.3,5.7-61.4,13c-7.6,3.6-15,10-21.1,17.9c-5.1,6.6-8.4,13.4-8.4,16.5
	c0,9.6-7.6,18.2-27.1,26.2c-18.8,7.8-43.8,35.8-56,58.8c-2.5,4.6-4,8.3-6.5,16.3c-5.3,16.5-9.5,24.2-21.5,35.4
	c-9.4,8.7-27.5,16.6-54.8,24.9c-5.5,1.7-11.2,3.3-16.7,4.9c-5.1,1.4-10.4,2.9-15.5,4.3c-12.1,3.4-18.4,5.3-22.7,7
	c-8.8,3.6-15.9,9-25.2,18.3c-0.1,0.1-7.4,7.6-9.4,9.6c-2.6,2.8-5.5,5.3-8.7,7.4c-3.6,2.5-19.5,12.7-23.1,15.2
	c-9.8,6.6-17,12.5-22.8,19c-2.2,2.5-14.2,14.6-16.7,17.8c-4.6,5.7-6.6,10.5-6.6,17c0,12.5,26.4,38.9,44,46.3c4.9,2,12,3,24.2,4
	c1.8,0.1,3.8,0.3,5.7,0.4c4.2,0.3,6.7,0.5,9.1,0.7c18.6,1.8,31.4,4.5,38.7,9.5c2.4,1.6,4,3.8,6.3,8.3l1.4,2.8c0.9,1.7,2,3.4,3,5
	c0.8,1.1,1.7,2.1,3,3.4c0.3,0.3,1.4,1.6,1.7,1.8c3.8,4.1,5.5,6.9,6.1,11.2c0.3,2.8,0.3,5.7,0,8.7c-0.8,7.2-3.2,14.8-7.1,23.9
	c-0.9,2.2-1.3,2.9-3.6,7.6c-4.6,9.9-17.5,10.3-35.8,3.7c-14.1-5.1-30.8-14.4-42.4-22.9c-19.6-14-51-25.8-69.2-25.8
	c-6.6,0-8.4,4-10,17.5c-0.4,4.1-1.1,8.2-1.8,12.3c-2,9.9-5.7,17.1-12.4,22.7c-9.1,7.4-12.5,19.5-14.2,41.9c-0.1,2-0.3,3.3-0.5,7.4
	C127.9,779.1,127.4,785.6,126.4,790.7L126.4,790.7z M137.1,790.7h-1.3c0.4-1.8,0.8-3.8,1.2-6.1l1.4-7.4c3.3-17.5,5.5-26.2,8.8-31.6
	c2.2-3.7,4.9-7.2,10.7-14.5c10.8-13.7,14.4-19.1,14.4-24.6v-2.2c0-2.4,0-3.6,0-5c0.3-6.6,2-10.8,6.1-12.4c5.1-2,13.7,0.5,26.5,8.4
	c12.7,7.8,23.1,14.1,34.1,20.7c1.7,1.1,18.8,11.1,23.3,13.8c2.8,1.7,5.7,3.4,8.4,5.1c18.2,11.2,51.3,6.6,61-10.3
	c4.7-8.3,5.9-11.2,10.3-22.8c0.5-1.3,1.1-2.8,1.6-4.1c1.4-3.6,3.2-6.9,5.4-10c12.3-18.4,19.6-34.4,19.6-48.4c0-4.9,1.1-8.7,4.5-19.6
	c0.7-2.1,1.1-3.6,1.4-4.9c4.7-16.1,4-25.2-5.7-31.6c-4-2.6-8.4-4.3-13.2-5c-9.5-1.2-19.1,1.6-31.5,7.8c-2.1,1.1-8.7,4.5-10,5.1
	c-1.8,0.9-3.7,2-5.4,3l-5.8,3.6c-15.3,9.1-26.9,12.1-43.2,8c-4.3-1.1-8.2-1.8-17.3-3.4c-17.4-3.2-24.6-5-30.7-8.6
	c-8.2-4.9-9.9-11.9-3.8-21.9c5.3-8.8,11.7-16.9,19-24.1c3.6-3.6,7.2-6.9,10.9-10.1c-0.1,0,8.2-7,10.3-9c3-2.6,5.8-5.4,8.6-8.3
	c10.1-11.2,16.9-17.7,26.5-24.5c13-9.4,28.2-16.3,46.4-20.6c48.8-11.3,67.2-16.7,77.5-23.6c11.3-7.5,28.1-32.7,48.5-72.2
	c6.9-13.3,16.2-24.2,27.8-33.9c6.7-5.5,12.7-9.5,23.1-16.1c9.8-6.1,12.7-8,15-10.8c1.6-2,2.9-4.1,4-6.5c0.8-1.7,3.8-8.6,4-9
	c1.8-4,3.4-7.1,5.3-10.1c8.6-14.5,21.1-23.7,41.4-27.4c16.7-3,26.2-3.6,39.1-3c4.2,0.1,5.4,0.3,7.4,0.1c6.7-0.1,12.8-1.3,21.9-5
	c27.3-10.9,51.1-15.8,78-15.8c4,0,7.9,0.1,13.8,0.7l2.8,0.3c16.5,1.3,23.9,1.3,33.3-0.8c6.5-1.4,12.8-3.8,18.6-7.1v1.4
	c-5.7,3.2-11.9,5.5-18.3,7c-9.8,2.1-17.3,2.1-33.7,0.8l-2.8-0.3c-5.8-0.4-9.8-0.7-13.7-0.7c-26.8,0-50.3,4.9-77.5,15.8
	c-9.2,3.7-15.4,5-22.4,5.1c-2,0-3.2,0-7.5-0.1c-12.9-0.5-22.1,0-38.9,3c-19.9,3.6-32,12.7-40.5,26.8c-1.8,3.3-3.7,6.6-5.1,10
	c-0.1,0.4-3.2,7.2-4,9c-1.1,2.4-2.4,4.6-4.1,6.7c-2.5,2.8-5.4,4.9-15.3,11.1c-10.5,6.6-16.3,10.4-22.9,16.1
	c-11.6,9.5-20.7,20.3-27.5,33.5c-20.6,39.8-37.4,65-49,72.7c-10.5,7-29,12.4-78,23.9c-17.9,4.2-32.9,11.1-45.9,20.3
	c-9.5,6.9-16.2,13.2-26.2,24.2c-2.8,2.9-5.7,5.8-8.7,8.4c-2.2,2-10.4,9-10.3,9c-4.3,3.7-7.6,6.9-10.9,10
	c-7.2,7.1-13.6,15.2-18.8,23.9c-5.7,9.5-4.2,15.7,3.3,20.2c5.9,3.4,13,5.3,30.6,8.4c5.7,0.9,11.3,2.1,17,3.4
	c15.9,4,27.1,1.1,42.3-7.9l5.8-3.4c2.2-1.3,4-2.2,5.5-3.2c1.2-0.7,7.9-4.1,10-5.1c12.7-6.3,22.4-9.1,32.3-7.9
	c4.9,0.7,9.6,2.4,13.7,5.1c10.3,6.9,11.2,16.5,6.2,33.1c-0.4,1.4-0.8,2.8-1.6,4.9c-3.4,10.7-4.3,14.5-4.3,19.1
	c0,14.4-7.5,30.4-19.9,49.2c-2.1,3-3.8,6.3-5.3,9.9c-0.5,1.2-0.9,2.4-1.6,4c-4.2,11.6-5.5,14.6-10.3,23.1
	c-10.1,17.7-44,22.4-62.9,10.8c-2.8-1.7-5.7-3.4-8.4-5.1c-4.5-2.6-21.6-12.8-23.3-13.8c-11.1-6.6-21.6-12.9-34.1-20.7
	c-12.5-7.6-20.7-10.1-25.3-8.4c-3.6,1.3-5,5-5.3,11.2c0,1.6-0.1,3.3,0,4.9v2.2c0,5.9-3.6,11.5-15.2,26.2c-5.1,6.6-7.8,10-10,13.7
	c-3.2,5.3-5.4,14-8.7,31.2L138,785L137.1,790.7L137.1,790.7z M151,790.7h-1.3c0-0.4,0-0.9,0-1.3c0-16.3,11.2-44.3,25.3-57.2
	c1.8-1.7,3.4-3.6,4.9-5.5c1.4-2.1,2.8-4.2,3.8-6.5c0.5-0.9,2.4-4.9,2.8-5.8c4.2-8.3,9-8.6,22.4,0.5c1.7,1.2,8,5.5,8.4,5.8
	c3.4,2.4,6.2,4.2,8.8,6.1c6.6,4.5,12.4,8.2,17.8,11.5c18.8,11.5,33.6,17.5,44.9,17.5c22.3,0,43.1-7.9,52.2-19.5
	c2.1-2.6,4.2-6.9,6.7-12.7c1.1-2.5,2.1-5.4,3.6-9l3.6-9.6c6.2-16.3,10.3-25.2,15.3-30.7c10.4-11.6,19.6-47.4,19.6-69.4
	c0-2.5,0.3-4.1,1.3-10.9c0.5-2.9,0.8-4.7,0.9-6.7c0.8-7.2,0.3-12.5-2.2-16.3c-6.1-9.4-26-12.1-50.7-6.3c-8.6,2-17,4.7-24.9,8.3
	c-6.9,3.2-22.5,12.8-21.7,12.4c-8.8,4.7-17.1,5.4-32.7,1.7c-39-9.4-40.1-11.3-20.2-35.3c22.9-27.5,62.1-60.9,74.3-60.9
	c13,0,70.9-15.8,86.7-23.7c12.5-6.2,32-27.9,48.5-49.9c0.9-1.3,17.8-28.5,25.3-39c12.4-17.3,24-29.7,35.6-36.2
	c9.6-5.5,17.4-13.6,24.8-24.6c2.5-3.8,13.8-23.2,16.7-26.9c2-2.5,4-4.2,5.9-5.1c18.6-8.2,31.9-11.9,51.7-11.9h38.2
	c5.3,0,9.8-0.5,30.2-3.3l5.7-0.8c13-1.7,21.9-2.5,28.7-2.5c2.2,0,4,0,7.9,0c24.5,0.3,37.6-0.7,59.2-5.3c4.1-0.9,8-2.4,12-4.3v1.4
	c-3.7,1.8-7.6,3.3-11.7,4.2c-21.6,4.7-34.8,5.5-59.4,5.4c-4.1,0-5.8,0-7.9,0c-6.9,0-15.5,0.8-28.5,2.5l-5.9,0.8
	c-20.6,2.8-24.9,3.3-30.4,3.3h-38.2c-19.5,0-32.7,3.7-51.1,11.9c-1.7,0.8-3.6,2.4-5.4,4.7c-2.9,3.6-14.1,22.9-16.7,26.8
	c-7.5,11.3-15.4,19.5-25.2,25c-11.3,6.5-22.9,18.7-35.1,35.8c-7.5,10.5-24.4,37.7-25.3,39c-16.6,22.1-36.2,43.9-49,50.2
	C385,476.1,327,492,313.7,492c-11.6,0-50.6,33.1-73.3,60.4c-19.2,23.1-18.7,24,19.4,33.2c15.3,3.7,23.2,3,31.8-1.6
	c-0.9,0.5,14.9-9.2,21.9-12.4c7.1-3.3,15.3-6.1,25.2-8.4c25.2-5.9,45.6-3.2,52.1,6.9c2.6,4.2,3.3,9.6,2.4,17.1
	c-0.3,2.2-0.7,4.5-1.1,6.7c-1.1,6.7-1.3,8.3-1.3,10.7c0,22.3-9.2,58.4-19.9,70.2c-4.9,5.4-9,14.1-15,30.3c-0.5,1.2-2.9,7.8-3.6,9.6
	c-1.3,3.7-2.5,6.5-3.6,9c-2.5,5.9-4.6,10.1-6.9,12.9c-9.4,12-30.6,20-53.2,20c-11.7,0-26.5-6.2-45.6-17.7c-5.4-3.3-11.2-7-17.9-11.5
	c-2.9-2-5.9-4-8.8-6.1l-8.4-5.8c-12.8-8.7-16.6-8.4-20.4-1.1c-0.5,0.9-2.2,4.7-2.8,5.7c-1.2,2.4-2.4,4.5-4,6.6c-1.4,2.1-3.2,4-5,5.7
	c-13.8,12.7-24.8,40.2-24.8,56.1L151,790.7L151,790.7z M111.8,790.7h-1.4c1.6-3.3,2.4-6.9,2.4-10.5c0-26.4,6.3-55.3,16.1-65
	c6.9-6.9,10.3-11.1,13-16.7c3.4-7.1,5.1-15.8,5.1-27.5c0-9,1.4-15.3,4.5-19.9c2.2-3.6,4.7-5.5,11.7-9.9c1.8-1.1,3.6-2.4,5.1-3.7
	c6.1-5.3,8.7-8.2,10.1-12.4c1.8-5.3,1.2-11.9-2.5-21.1c-1.6-3.7-3.3-7.2-5.3-10.7l-1.2-2.2c-1.2-2.1-2.4-4.3-3.4-6.6
	c-6.9-14.1-5-24.9,10.1-39.3c10.9-10.4,22.8-19.9,35.3-28.3c5.3-3.6,22.1-14.2,25.3-16.5c2.6-1.8,5.7-4.3,10.3-8.3
	c0,0,9.5-8.4,12.5-10.9c6.6-5.7,12-9.9,17.3-13.3c6.2-4.1,11.9-7,17-8.3c16.9-4.5,20.6-5.5,28.7-7.9c16.5-4.7,29-9.1,37-13.2
	c3.2-1.4,6.5-2.8,9.9-3.7c11.5-3.6,15.8-5.4,22.4-10.7c9-7.2,17.3-18.7,25.4-36.8c21.1-45.9,25.2-51.9,42.3-64.8
	c4.1-3.2,8.4-5.4,15-8.4l3-1.3c15.7-7.1,22.3-11.7,27.8-22.9c2.5-5,3.3-8.3,4.5-16.2c1.1-6.9,2-10,4.6-13.4c3.4-4.5,9.2-8.3,19-11.9
	c4.5-1.7,9.8-3.3,15.8-4.9c21.5-5.7,33.3-7.1,52.2-7.6c9.1-0.3,12.5-0.8,16.7-2.6c1.6-0.7,3.2-1.6,4.7-2.8
	c4.9-3.6,10.7-5.9,17.4-7.5c7.5-1.7,14.1-2,24.6-1.8h3.2c3.7,0,9-1.3,26-6.2c14.2-4.1,21.1-5.7,25.4-5.7c1.1,0,2.5,0.1,4.6,0.5
	l6.6,1.2c12.9,2.2,22.9,2.5,33.2-0.3c10.5-2.9,19.5-9,26.8-18.7v2.1c-7.2,9.2-16.1,15-26.4,17.9c-10.4,2.8-20.6,2.5-33.7,0.3
	l-6.6-1.2c-2.1-0.4-3.4-0.5-4.5-0.5c-4.2,0-10.9,1.6-26,5.9c-16.2,4.6-21.5,5.9-25.4,5.9h-3.2c-10.4-0.1-17,0.3-24.4,1.8
	c-6.6,1.4-12.3,3.8-17,7.2c-1.6,1.2-3.2,2.1-5,2.9c-4.3,2-7.9,2.5-17.1,2.8c-18.7,0.5-30.4,2-51.9,7.6c-5.3,1.3-10.5,3-15.8,4.9
	c-9.5,3.6-15.2,7.2-18.3,11.5c-2.5,3.3-3.4,6.3-4.3,12.9c-1.2,8-2,11.5-4.6,16.6c-2.9,6.1-7.2,11.2-12.8,15c-4.1,3-7.9,4.9-15.7,8.4
	l-3,1.3c-6.6,3-10.8,5.3-14.8,8.3c-17,12.8-21,18.7-42,64.3c-8.3,18.2-16.7,29.9-25.8,37.2c-6.7,5.4-11.2,7.4-22.8,10.9
	c-3.3,0.9-6.6,2.1-9.6,3.6c-8.2,4.1-20.7,8.4-37.3,13.3c-9.5,2.8-19.1,5.4-28.7,7.9c-5,1.3-10.4,4.1-16.6,8.2
	c-5.9,4.1-11.6,8.6-17,13.3c-2.9,2.5-12.5,10.9-12.5,10.9c-3.3,3-6.7,5.8-10.3,8.4c-3.3,2.2-20.2,12.9-25.4,16.5
	c-12.5,8.4-24.2,17.9-35.2,28.3c-14.6,14-16.3,24.1-9.9,37.7c1.1,2.2,2.2,4.3,3.4,6.6l1.2,2.2c2,3.4,3.8,7.1,5.3,10.8
	c3.8,9.5,4.5,16.5,2.5,22c-1.6,4.5-4.3,7.6-10.5,12.9c-1.4,1.3-3,2.4-7,4.9c-5.1,3.3-7.5,5.1-9.6,8.4c-2.8,4.3-4.2,10.4-4.2,19.1
	c0,11.9-1.7,20.8-5.4,28.1c-2.9,5.9-6.3,10.3-13.3,17.1c-9.4,9.4-15.5,38.1-15.5,64.2C114.1,783.9,113.3,787.4,111.8,790.7
	L111.8,790.7z M484.1,790.7h-1.3l-1.4-7.6c-4.1-21.5-5.3-34.5-3.6-49.2c0.9-7.6,1.1-12.8,0.7-20.2c-0.3-5.9-0.3-7.5,0.3-10
	c1.1-5.7,4.5-11.2,13.7-21.5c12-13.4,16.2-20.3,26.1-39.7c1.8-3.4,3-5.9,4.5-8.3c1.2-2.1,2.4-4.1,3.7-5.9
	c4.1-6.2,9.2-11.1,22.1-22.1c14.8-12.7,20.4-18.3,23.9-25.2c0.9-1.8,1.7-3.7,2.5-5.8c0.7-1.7,1.3-3.6,2-5.3
	c4.7-13,10.5-18.3,30.2-23.5c6.6-1.7,27-6.7,28.2-7c21.3-5.4,33.3-9.8,44.1-16.6c7.8-5,7.6-5,36.5-21.7l3.4-2
	c13.4-7.9,22.5-13.4,29.9-18.4c4-2.6,7.8-5.4,11.6-8.3c2.8-2.2,5.7-4.5,8.4-6.7c6.6-5.3,13.7-9.8,21.2-13.6v1.4
	c-7.2,3.6-14.1,8-20.4,13c0.3-0.1-6.3,5-8.4,6.7c-3.8,2.9-7.6,5.7-11.6,8.4c-7.5,5-16.5,10.5-30,18.4l-3.4,2
	c-28.7,16.9-28.7,16.7-36.4,21.7c-10.9,7-23.1,11.3-44.5,16.7c-1.1,0.3-21.6,5.3-28.2,7c-10.5,2.8-17.3,5.9-21.7,9.9
	c-3.6,3.2-5.3,6.5-7.6,12.8l-2,5.4c-0.8,2-1.6,4-2.6,5.9c-3.6,7.2-9.2,12.9-24.2,25.7c-12.8,10.9-17.9,15.8-21.9,21.9
	c-1.3,2-2.5,3.8-3.6,5.9c-1.3,2.4-2.6,4.7-4.5,8.2c-10,19.5-14.2,26.5-26.4,40.1c-9,10.1-12.4,15.5-13.3,21c-0.4,2.4-0.4,4-0.3,9.8
	c0.3,7.5,0.1,12.7-0.7,20.4c-1.7,14.4-0.4,27.4,3.6,48.8L484.1,790.7L484.1,790.7z M383.3,790.7h-2.8l1.8-5.7
	c1.3-4.3,2.5-9,3.6-13.7c3.4-16.7,4.3-31.1,4.3-54.4c0-7.5-2.5-12.9-5.4-12.9c-3.8,0-9.2,7.4-14.4,22.5c-12.9,37.3-29.8,55-56.5,55
	c-29.5,0-38.6-1.7-63.8-13.3c-4.2-2-8.4-4.2-12.4-6.6c-3.8-2.4-16.9-11.3-19.5-12.8c-5.5-3.2-9.2-3.6-12.8-1.3
	c-0.8,0.5-1.7,1.2-2.5,2c-1.8,1.8-3.7,3.4-5.7,5.1c-1.3,1.1-2.6,2.1-4.1,3.2l-1.3,1.1c-11.3,8.7-15.3,15-15.3,27.9
	c0,1.3,0,2.6-0.1,4h-2.6c0.1-1.3,0.1-2.6,0.1-4c0-13.8,4.3-20.8,15.9-30c0.9-0.7,1.7-1.4,2.6-2.1c1.1-0.8,1.8-1.4,2.6-2.1
	c2-1.6,3.7-3.2,5.5-4.9c0.9-0.9,2-1.7,2.9-2.4c4.6-2.9,9.2-2.4,15.5,1.2c2.8,1.6,15.8,10.5,19.6,12.9c4,2.4,7.9,4.6,12.1,6.5
	c24.9,11.3,33.5,13,62.7,13c25.3,0,41.5-16.7,54.2-53.1c5.5-16.1,11.5-24.2,16.9-24.2c5,0,8,6.7,8,15.5c0,23.5-0.8,38-4.3,55
	c-1.1,4.9-2.2,9.5-3.7,14C384.3,787.5,383.8,789.1,383.3,790.7L383.3,790.7z M186.5,790.7l0.7-1.2c3.2-5.7,6.1-11.5,8.6-17.5
	c3.6-8.3,7.6-12.7,12.1-13.8c4.9-1.3,9.4,0.9,16.6,6.7c7.1,5.8,8,6.5,10.1,6.7c2.1,0.3,5.7,1.4,11.7,4c1.7,0.7,14.2,5.7,18.3,7.2
	c4.1,1.6,7.8,2.9,11.2,4.2c4.1,1.4,7.9,2.6,11.3,3.7h-4.5c-2.4-0.8-4.7-1.6-7.2-2.5c-3.8-1.3-7.5-2.8-11.2-4.2
	c-4.1-1.6-16.6-6.6-18.3-7.2c-5.9-2.4-9.4-3.6-11.3-3.8c-2.5-0.4-3.3-0.9-10.8-7c-6.9-5.5-11.1-7.6-15.4-6.5
	c-4.1,1.1-7.8,5.1-11.3,13.2c-2.8,6.2-5.7,12.3-9,18.2L186.5,790.7L186.5,790.7z M335.3,790.7c5.5-1.7,10.5-4.5,14.9-8.3
	c2-1.8,4.3-4.6,7-8.3c1.3-2,2.8-4.1,4.5-6.6c1.1-1.7,2.2-3.4,3.3-5.1l0.7-1.1l1.2-2c1.3-2.2,2.8-4.3,4.2-6.5
	c1.3-1.8,2.4-2.9,3.2-3.3c1.3-0.5,2,0.7,2,2.6v2.8c0,9.1-0.1,14.9-0.9,21.5c-0.5,4.7-1.6,9.4-3.2,14h-1.4c1.6-4.6,2.8-9.2,3.3-14.1
	c0.8-6.6,1.1-12.3,0.9-21.3v-2.8c0-1.3-0.1-1.4-0.1-1.4c-0.5,0.1-1.3,1.1-2.6,2.8c-1.4,2.1-2.9,4.2-4.2,6.3l-1.2,2l-0.7,1.1
	c-1.1,1.7-2.2,3.4-3.3,5.1c-1.7,2.6-3.2,4.7-4.5,6.7c-2.8,3.8-5.1,6.6-7.2,8.6c-3.4,3-7.5,5.5-11.7,7.2L335.3,790.7L335.3,790.7z
	 M93.2,790.7h-1.8c4.5-4.5,6.9-10.9,6.9-19.8c0-24.5,0-22.8,1.3-27.4c0.8-2.5,2-4.9,4.3-8.7c0.5-0.9,6.5-10.3,9-14.4
	c4-6.6,14.5-21.7,16.1-24.5c4.6-8,6.2-15.9,6.2-31.9c0-10.4,3.3-18.7,10.7-30.8l3.7-6.1c1.2-1.8,2.2-3.8,3.3-5.8
	c2.1-4.1,3.3-7.6,3.4-10.9c0.3-5-1.7-9.6-6.5-14.4c-6.7-6.7-11.3-7.1-14.8-2.5c-2.8,3.8-4.6,10.1-6.7,21.7c-0.3,1.3-1.1,6.1-1.1,6.1
	c-1.1,6.2-1.8,9.6-2.8,12.7c-1.7,5.8-4.9,10-11.1,16.2l-4.3,4.2c-8.4,8.4-12.8,15.2-15,25.7l-1.6,7.2c-1.2,5.4-2.1,9.2-3,13
	c-4.9,18.1-12.8,34.3-29.8,58.9c-10.1,14.6-14.5,24.9-14.4,31.2h-1.3c-0.1-6.9,4.3-17.1,14.6-32c17.1-24.5,25-40.5,29.8-58.4
	c1.1-3.8,1.8-7.6,3-13l1.6-7.2c2.2-10.8,6.7-17.8,15.3-26.4c0.8-0.8,3.7-3.7,4.2-4.2c6.1-5.9,9-10,10.7-15.5
	c1.2-4.1,2.1-8.3,2.8-12.5l1.1-6.1c2.1-11.7,4-18.2,6.9-22.3c4-5.4,9.5-5,16.7,2.2c5,5,7.1,10,6.9,15.4c-0.3,3.6-1.4,7.1-3.6,11.5
	c-1.1,2-2.1,4-3.3,5.9l-3.7,6.1c-7.2,12-10.5,20.2-10.5,30.2c0,16.2-1.7,24.2-6.3,32.5c-1.6,2.8-12.1,18.1-16.1,24.5
	c-2.5,4.1-8.4,13.4-9,14.4c-2.2,3.7-3.4,6.1-4.2,8.4c-1.3,4.3-1.3,2.8-1.3,27C99.6,779.5,97.3,786,93.2,790.7L93.2,790.7z M408.7,0
	h1.4c-0.5,1.2-1.1,2.4-1.6,3.7c-5.1,12-7.2,19.9-7.2,33.2c0,10-2.8,15.3-8.7,17.1c-4.6,1.4-7.5,1.3-23.2-0.5
	c-15.2-1.8-25.3-2.1-37.2-0.1c-8.2,3.3-34.1,9.2-42.3,9.2c-14.6,0-48.5-3.8-71.3-9.2c-7.6-2-15.7-0.8-22.3,3.3
	c-5.4,3-9.4,6.6-18.3,15.8c-8.3,8.4-12.5,12.1-18.2,15.2c-9.4,5-14.8,10.1-17.7,16.2c-2.4,5-3,10.3-3,20.2c0,5.8-3.6,8.8-12.4,12.8
	c0.1-0.1-4,1.7-5,2.2c-11.6,5.4-16.7,10.9-16.7,21.7c0,16.5-6.5,25.3-22.8,36.9l-6.1,4.1c-2.5,1.7-4.3,3-6.2,4.3
	c-1.2,0.9-2.4,1.7-3.4,2.6c-9.5,7.4-14.5,19.1-20.6,43.9c-0.8,3.4-4.3,18.4-5.4,22.5c-2,8.6-4.3,17-6.9,25.4
	c-1.8,5.9-5.9,19.9-6.6,21.7c-1.3,4.5-2.1,6.5-3.3,8.3c-1.1,1.8-9.1,12-16.6,24.1l-7.2,11.6v-2.5l6.1-9.8c5.3-8.2,10.8-16.2,16.6-24
	c-0.4,0.7,1.8-3.7,3.2-8c0.7-1.8,4.7-15.8,6.6-21.7c2.4-7.9,4.5-15.9,6.9-25.4c1.1-4.1,4.5-19.2,5.4-22.5
	c6.1-24.9,11.2-36.9,21-44.5c1.1-0.9,2.2-1.7,3.6-2.6c1.8-1.3,3.7-2.6,6.2-4.3l5.9-4.1c16.1-11.3,22.3-19.8,22.3-35.7
	c0-11.5,5.5-17.5,17.5-22.9c1.2-0.5,5.3-2.4,5-2.2c8.6-3.8,11.7-6.6,11.7-11.6c0-10,0.7-15.4,3.2-20.7c3-6.3,8.7-11.6,18.2-16.7
	c5.5-2.9,9.8-6.6,18.6-15.7c8.3-8.4,12.4-12,17.8-15.2c7-4.2,15.4-5.4,23.3-3.4c22.8,5.4,56.4,9.2,71,9.2c8,0,33.9-5.9,42-9.2
	c12-2,22.1-1.6,37.6,0.1c15.3,1.8,18.3,2,22.5,0.7c5.4-1.7,7.8-6.3,7.8-15.9C400,23.6,402.1,15.4,408.7,0L408.7,0z M441.8,0h1.3
	c0,7.4,0.4,15.2,0.8,25.6c0.7,12.8,0.8,19.2,0.8,28.5c0,12.9-6.2,23.1-17.3,30.6c-8.6,5.8-19.6,9.9-32,12.3
	c-4.9,0.7-12.4,0.8-29.9,0.3c-8.8-0.3-12.4-0.3-16.3-0.3c-3.7,0-6.6,0.5-10,1.8c-1.2,0.4-6.1,2.2-7.4,2.8c-8.7,3-17.9,4.6-32.7,4.6
	c-10.7,0-17.9-1.8-29.7-6.5l-4.2-1.6c-16.6-6.5-28.1-6.9-49,1.4c-14.6,5.8-23.9,12.1-29.4,19.5c-4.1,5.7-5.7,10.3-7.8,20.8
	c-1.6,8-2.5,11.5-4.6,15.9c-2.1,4.6-5.3,7.6-9.4,9.5c-3,1.4-5.7,2-12.3,2.9c-11.9,1.7-16.9,4.1-20.6,12.7
	c-4.9,11.2-10.1,18.3-18.7,26.1c-3.2,2.9-17.3,14.5-21,17.7c-10.8,9.4-18.2,22.9-24.6,42.2c-1.6,4.6-3,9.4-4.3,14.1
	c0,0.1-3,10.5-3.8,13.3c-10.9,38-23.3,69.7-34.1,80.6c-3.7,3.7-6.7,7.4-13.7,17.1c-4.5,6.2-8.2,10.8-11.7,14.6v-2
	c3.6-4,7.5-9,12.5-15.8c5.3-7.2,8.3-11.1,12.1-14.8c10.7-10.7,22.9-42.3,34.1-80.1c0.8-2.8,3.8-13.2,3.8-13.3
	c1.6-5.5,2.9-9.9,4.3-14.1c6.5-19.5,14-33.2,25-42.7c3.7-3.2,17.8-14.8,21-17.7c8.4-7.6,13.6-14.6,18.4-25.6c2.2-5,5.4-8.3,9.5-10.4
	c3.2-1.6,6.1-2.2,12.5-3.2c5.9-0.8,8.6-1.4,11.5-2.8c3.8-1.7,6.6-4.5,8.7-8.8c2-4.3,2.9-7.8,4.5-15.7c2.1-10.7,3.8-15.5,8-21.3
	c5.7-7.6,15-14.1,29.9-20c21.2-8.4,33.1-8,49.9-1.4l4.2,1.7c11.6,4.6,18.6,6.3,29.1,6.3c14.6,0,23.7-1.6,32.3-4.6
	c1.3-0.5,6.2-2.4,7.4-2.8c3.3-1.3,6.9-1.8,10.5-1.8c4,0,7.5,0.1,18.6,0.4c15.2,0.4,22.7,0.4,27.4-0.3c12.1-2.4,23.1-6.3,31.5-12.1
	c10.8-7.2,16.7-17,16.7-29.4c0-9.2-0.3-15.7-0.9-29.9C442,14.5,441.8,7.3,441.8,0z M123.8,0h2.6c-0.9,5.3-2.1,9-4,12.5
	c-3,5.8-3.7,7.6-7,17.1c-0.7,2.2-1.6,4.5-2.5,6.6c-2.9,6.2-7.8,11.6-17.3,18.8c-10.5,8-18.8,21.7-26.4,41.5
	c-3.2,8.2-11.6,33.7-12.7,36.9c-3.6,9.5-8.7,16.7-20.6,31.2l-3.6,4.2c-7.9,9.6-12.4,15.9-15.4,22.5c-3,6.5-9.4,13-17,18.6v-3.2
	c6.7-5.1,12-10.9,14.6-16.6c3.3-7,7.8-13.3,15.8-23.2l3.6-4.3c11.7-14.2,16.7-21.3,20.2-30.4c1.2-3,9.5-28.6,12.7-36.9
	c7.8-20.2,16.2-34.3,27.3-42.7c9.1-7,13.7-12.1,16.5-17.8c0.9-1.8,1.6-3.6,2.4-6.3c3.2-9.8,4-11.6,7.1-17.5C122,7.8,123.1,4,123.8,0
	z M135.7,0h1.3c-2.2,10.9-3.8,16.7-5.9,20.2s-3.8,7.1-5.4,10.8c-1.7,4-3.2,8.2-4.6,12.4c-0.5,1.4-0.9,2.9-3.2,7.1
	C112.1,56,106.4,62,101,68c-4.6,5.3-7.8,9.6-9.5,12.8c-1.2,2.5-2.8,7.9-4.7,17.1c-0.8,3.8-4.9,22.7-5.9,27.8
	c-4.7,21.7-8.7,35.2-13,42.2c-10.1,16.5-14,20.7-48.9,54.2c-5.7,5.5-12,10.4-18.8,14.4V235c6.6-3.8,12.5-8.4,17.9-13.7
	c34.8-33.7,38.7-38,48.8-54.3c4.2-6.9,8.2-20.3,12.9-41.8c1.2-5.1,5.1-24,5.9-27.8c2.1-9.4,3.6-14.8,4.9-17.4c1.6-3.3,5-7.8,9.6-13
	c1.2-1.3,2.5-2.8,3.8-4.2c3.2-3.4,6.6-6.9,9.9-10.3c1.2-1.2,2.2-2.2,4.5-4.5c1.7-6.1,3.8-12,6.3-17.8c1.6-3.8,3.4-7.5,5.5-11.1
	C132,16.2,133.6,10.6,135.7,0L135.7,0z M110.4,0h1.4c-2.8,6.2-7.9,11.7-15,16.2c-9.5,5.9-21.7,9.5-32.2,9.5
	c-11.7,0-15.5,9.2-15.4,28.3c0,2.2,0,4.2,0.1,7.9c0.1,4.3,0.1,5.9,0.1,7.9c0,7.5-1.1,14.9-2.6,21.7c-0.8,3.2-1.7,6.2-2.9,9.2
	c-3,7-6.1,14-9.2,21c-8.7,19.4-17.4,38.6-26.2,57.9c-2.2,4.9-5,9.8-8.4,14.1v-2.1c2.9-4,5.3-8.2,7.4-12.7
	c11.2-24.4,22.3-48.9,33.2-73.5c0.7-1.6,1.3-2.9,3.2-7.8c2.9-9,4.3-18.3,4.5-27.8c0-2,0-3.6-0.1-7.9C48,58.3,48,56.3,48,54.1
	c0-9,0.7-15.3,2.8-20.2c2.5-6.2,7.1-9.5,14.1-9.5C75,24.4,87,21,96.4,15.1C102.7,11,107.7,5.8,110.4,0L110.4,0z M482.8,0h1.3
	c2.5,13.2,2.9,16.7,3,24.1c1.6,12.1,1.7,24.5,0.5,36.6c-1.3,11.6-4.1,21.1-8.7,27.9c-14.9,21.7-52.4,38.5-87.5,38.5
	c-6.7,0-13.8,0.4-21.5,1.1c-10.8,1.1-21.5,2.5-32.2,4.2c-28.5,4.3-36.5,5.3-47.8,5.3c-9.1,0-16.1-1.4-28.6-5.1l-3.7-1.1
	c-1.8-0.5-3.3-0.9-4.7-1.3c-10.5-2.8-18.7-2.6-28.6,0.9c-5.3,1.8-9.6,5.8-12.1,10.8c-2.1,4.1-3.3,8-5.3,16.9c-2,8.7-3,12.5-5.3,16.6
	c-2.6,5.3-7.2,9.4-13,11.1c-4.2,1.3-8.4,2.8-12.5,4.5c-8.7,3.7-13.3,7.4-18.2,13.8c-1.7,2.4-1.3,1.7-7.1,10.4
	c-2.6,4-6.2,7.6-11.2,12c-2.6,2.4-14.1,11.6-17,14.1c-9.8,8.4-16.6,15.9-21.9,25.2c-5.5,9.6-10.3,24.1-14.9,43.9
	c-1.2,4.9-2.2,10-3.4,15.9l-1.6,7.6l-1.4,7.1c-2.4,11.9-3.7,17.5-5,21.5c-9,26.9-22.8,55.6-35.7,67.5C32,436.2,28,439.4,24,441.8
	c-1.2,0.7-2.4,1.3-3.8,2.1c-0.5,0.3-12.7,5.8-18.6,8.8l-1.6,0.8V452l1.1-0.5c5.9-3,18.1-8.4,18.6-8.7c1.3-0.7,2.5-1.3,3.7-2
	c3.8-2.4,7.8-5.4,14.4-11.5c12.8-11.7,26.5-40.2,35.4-66.9c1.3-3.8,2.5-9.5,4.9-21.2l1.4-7.2c1.6-7.9,3.2-15.8,5-23.7
	c4.6-19.9,9.4-34.4,15-44.1c5.4-9.4,12.4-17.1,22.1-25.6c2.9-2.5,14.4-11.7,17-14.1c5-4.3,8.4-8,10.9-11.7c5.8-8.7,5.4-8.2,7.2-10.5
	c5-6.6,9.9-10.4,18.7-14.2c3.4-1.4,7.5-2.9,12.7-4.6c5.4-1.6,9.8-5.4,12.3-10.4c2.1-4,3.2-7.6,5.3-17.1c1.8-8.3,3-12.3,5.3-16.5
	c2.6-5.3,7.2-9.4,12.8-11.5c10.1-3.7,18.6-3.7,29.4-1.1c1.4,0.4,3,0.8,4.9,1.3l4.9,1.4c11.2,3.3,18.1,4.7,27,4.7
	c11.3,0,19.4-1.1,47.7-5.3c10.7-1.7,21.3-3.2,32.2-4.2c7.8-0.7,14.9-1.1,21.6-1.1c34.7,0,71.8-16.6,86.4-38
	c4.5-6.6,7.2-15.9,8.6-27.3c1.1-10.1,0.9-21.1,0-31.5c-0.3-2.2-0.4-4.5-0.8-6.7C485.7,16.5,485.3,13.3,482.8,0L482.8,0z M25,0h1.3
	c-2.5,10-3.7,13.4-7.1,21.3C16.7,27.2,15.6,33.5,16,41c0.3,5.7,0.9,10.1,3,21.2c1.4,7.8,2.1,11.6,2.5,16.1c1.3,11.7,0.3,21.2-3.7,30
	c-5.5,12.1-11.5,24.1-17.8,35.8v-2.8c5.8-11.1,11.3-22.3,16.5-33.6c4-8.6,4.9-17.8,3.6-29.4c-0.5-4.5-1.1-8.3-2.5-15.9
	c-2.1-11.2-2.8-15.7-3-21.5c-0.4-7.6,0.7-14.2,3.3-20.2C21.4,13.1,22.5,9.7,25,0z M394.6,0c-1.7,5.1-4,10-6.5,14.8
	c-3.4,6.2-5.3,11.1-6.5,15.8l-0.5,2.4l-0.4,2c-0.1,0.9-0.5,1.8-0.9,2.8c-0.9,1.3-2.5,1.7-6.7,1.6c1.2,0-13-0.4-19.8-0.4
	c-13.4,0-24.2,1.1-38.9,3.4c-22.3,3.6-23.3,3.7-31.2,3.3c-3.6-0.1-7.1-0.7-10.5-1.4c-23.3-5.5-60.9-7.8-72.1-4
	c-3.6,1.2-7.8,3.7-12.5,7.4c-2.9,2.2-5.8,4.7-8.6,7.2c-1.8,1.6-12.1,11.2-14.2,12.9c-1.8,1.6-10.8,9.8-11.6,10.5
	c-2,1.7-4,3.4-6.1,5.1c-6.6,5.3-11.7,8.2-15.7,8.2c-4.6,0.1-5.7,0-6.7-0.5c-1.4-0.8-2-2.2-1.4-4.7c0.9-4.7,5.9-14.2,16.9-32.7
	c7.5-12.5,12.4-23.7,15.5-34.5c1.8-6.6,2.5-9.8,4-19.1h1.3c-1.4,9.6-2,12.8-4,19.5c-3.2,10.9-8.2,22.3-15.7,34.8
	C130.9,72.5,126,82,125.1,86.6c-0.4,1.8-0.1,2.8,0.8,3.3c0.8,0.4,1.7,0.4,4.6,0.4c5.1,0,10.1-2.8,16.5-7.9c1.8-1.4,3.8-3.2,5.9-5.1
	c0.9-0.8,9.8-9,11.7-10.5c2.1-1.7,12.3-11.2,14.2-12.9c3.2-2.9,6.1-5.3,8.7-7.2c4.9-3.7,9.2-6.3,12.9-7.5c11.6-3.8,49.3-1.6,72.9,4
	c3.4,0.8,6.7,1.3,10.3,1.4c7.6,0.3,8.8,0.1,31-3.3c14.6-2.4,25.6-3.4,39-3.4c6.9,0,21.1,0.4,19.8,0.4c3.8,0,5-0.3,5.7-1.1
	c0.3-0.4,0.5-1.1,0.8-2.2l0.4-1.8l0.5-2.5c1.2-4.7,3.2-9.8,6.6-16.1c2.5-4.5,4.5-9.2,6.2-14.2L394.6,0L394.6,0z M383.3,0
	c-7.8,23.6-12.5,29-26.1,29c-5.9,0-13.4,0.4-37.8,2l-2,0.1c-20.6,1.3-31,1.8-38,1.8c-7.1,0-17.4-1.3-38.1-4.3l-2-0.3
	c-24.2-3.6-31.8-4.6-37.7-4.6c-5.8,0-9.6,1.3-14.5,4.3c-0.1,0.1-2.4,1.6-3,2c-3.2,2-5.7,2.9-8.8,2.9c-3.7,0-5.4-2-5.4-5.5
	c0-1.3,0.3-3,0.7-5.4c0.3-1.1,1.2-5.8,1.4-7c1.1-5.4,1.7-10.1,2-15h2.6c-0.3,5-0.9,9.9-2,15.5c-0.3,1.2-1.2,5.9-1.4,7
	c-0.4,1.6-0.5,3.3-0.7,4.9c0,2.2,0.7,2.9,2.8,2.9c2.6,0,4.7-0.8,7.5-2.5c0.7-0.4,2.8-1.8,3-1.8c5.3-3.3,9.5-4.9,15.8-4.9
	c6.1,0,13.6,0.9,38.1,4.6l2,0.3c20.4,3,30.8,4.3,37.7,4.3c6.9,0,17.3-0.5,37.7-1.8l2-0.1c24.4-1.6,31.9-2,38-2
	c11.9,0,15.9-4.5,23.3-26.4H383.3z M186.5,0h1.4c-2.8,5.1-3.4,6.7-3.7,8.2c-0.1,1.4,0.5,2.1,3,2.6c2.5,0.3,5.1,0.4,14.4,0.4
	c7.9,0,17.1,0.8,28.2,2.1c5.1,0.7,10.5,1.4,17.3,2.5c31.6,4.9,29.7,4.6,35.3,4.6c31.6,0,68.3-2.9,79.6-9.1c3.8-2.1,6.6-5.9,8.7-11.3
	h1.4c-2.1,5.9-5.3,10.1-9.5,12.4c-11.6,6.3-48.4,9.4-80.3,9.4c-5.8,0-3.7,0.3-35.6-4.6c-6.7-1.1-12.1-1.8-17.3-2.5
	c-10.9-1.4-20.2-2.1-27.9-2.1c-9.2,0-12-0.1-14.5-0.5c-3.2-0.5-4.5-1.7-4.1-4.1C183.2,6.4,184,4.8,186.5,0L186.5,0z M287.2,0
	c7.5,2.1,13.7,3.3,18.6,3.3c12.7,0,22-0.9,29.5-3.3h4c-8.3,3.3-18.7,4.6-33.5,4.6c-5.9,0-13.6-1.6-23.1-4.6H287.2L287.2,0z M93.2,0
	C89.4,4.4,84,7.1,77.4,8.6c-5.3,1.2-9.9,1.4-17,1.3c-0.8,0-1.6,0-2.4,0c-7.1,0-11.7-1.6-13.3-6.6c-0.4-1.1-0.5-2.2-0.5-3.3h1.3
	c0,1.1,0.1,2.1,0.5,2.9c1.3,4.2,5.4,5.7,12,5.7h2.4c7,0.1,11.6-0.1,16.7-1.3C83.1,6,88,3.6,91.5-0.1L93.2,0L93.2,0z M0.1,274
	c9.6-0.3,15.2,4.3,15.2,14.6c0,15-6.7,37.4-15.2,54.7v-3c7.8-16.7,13.8-37.6,13.8-51.7c0-9.5-4.9-13.6-13.8-13.3V274L0.1,274z
	 M0.1,283.2c1.6,0.1,2.9,0.8,3.8,1.7c1.8,2,2.1,4.9,1.6,10l-0.3,1.7c-0.3,1.7-0.4,3.4-0.5,5.1c0,4.2-2,12.5-4.6,21v-4.5
	c2-6.7,3.3-13,3.3-16.3c0-1.3,0.1-2.4,0.5-5.3l0.3-1.7c0.5-4.7,0.3-7.4-1.2-9c-0.7-0.7-1.6-1.2-2.9-1.3
	C0.1,284.7,0.1,283.2,0.1,283.2z M0.1,541.5v-2c1.6-1.8,2.9-4,4-6.2c1.7-3.6,3.6-8.3,6.1-15.7c10.3-31,10.3-35.1,0.3-40.1
	c-3-1.4-6.3-1.8-10.3-1.2v-1.3c3.7-0.8,7.5-0.3,10.8,1.3c10.8,5.4,10.9,10,0.3,41.6c-2.5,7.5-4.2,12.3-6.1,15.8
	C3.9,536.8,2.2,539.3,0.1,541.5z M44.3,595.7c2.2,0,4-0.3,10.9-1.7l3.2-0.7c10.9-2.1,16.7-1.7,19.1,3c1.8,3.7-0.7,7.8-6.3,12.8
	c-2.1,1.8-4.3,3.7-6.7,5.4c-1.2,0.9-6.5,4.7-7.6,5.7c-2.5,1.8-4,3.2-4.6,4c-1.7,2.2-2.9,4.6-3.8,7.2c0.1-0.3-5.3,17.9-9.2,29.3
	c-3.6,10.4-7.4,14.1-11.6,11.3c-2.8-1.8-4.9-5.5-8.7-14.5c-2.6-6.1-3.3-7.6-4.5-9.8c-6.1-10.8-5.1-31.5-0.1-43.4c1.6-4,5-7,9.2-7.9
	c3.4-0.9,6.5-1.1,15.5-0.9L44.3,595.7L44.3,595.7z M44.3,598.3c-1.4,0-2.8,0-5,0c-15.9-0.1-19.5,0.8-22.3,7.1
	c-4.7,11.2-5.7,31-0.1,41c1.3,2.2,2,3.8,4.6,10c3.6,8.3,5.5,12,7.8,13.3c2.1,1.4,4.6-1.1,7.6-9.9c3.2-9.8,6.3-19.5,9.2-29.3
	c0.9-2.9,2.4-5.5,4.2-7.9c0.9-1.2,2.4-2.5,5.1-4.5c1.2-0.9,6.5-4.7,7.6-5.7c2.6-2,4.7-3.7,6.6-5.3c4.7-4.2,6.7-7.5,5.7-9.6
	c-1.6-3.2-6.7-3.4-16.3-1.7l-3,0.7C48.7,598,46.8,598.3,44.3,598.3L44.3,598.3z M499.9,790.7c-4.6-16.2-5-18.6-5-25
	c0-4.3-0.1-8.3-0.5-14.9c-0.8-13.6-0.8-17.8,0.4-22.5c1.6-6.2,5.5-9.4,12.8-9.4h34.3c5.4,0,6.9,2.4,7.8,9.4c0.1,1.1,0.1,1.3,0.3,1.7
	c1.1,7,3.7,10,11.7,10c4.7,0,7.2,0.5,8.4,1.8c1.1,1.1,1.1,1.8,0.5,5.1c-1.2,7,0.7,11.6,9.9,18.2c8.3,5.9,15.3,7.1,21.7,4.5
	c5-2,8.8-5.5,15.7-13.2l1.4-1.6l1.4-1.6c1.2-1.3,2.4-2.5,3.6-3.8c3.7-3.7,7.9-6.6,12.7-8.8c2-1.1,2.2-1.2,7.5-3.4
	c8-3.6,11.9-5.9,15.4-10c3.4-4,6.2-6.3,8.8-7.9c4.2-2.4,7.2-2.8,18.1-2.8c7.9,0,14-5.7,23.7-19.8l3.7-5.3c1.4-2,2.5-3.6,3.7-5
	c10.4-13.3,25.6-13.7,40.5,1.3c7.2,7.2,13.4,25.6,17.9,50.7c3.3,18.2,5.5,38.9,5.9,52.4h-1.3c-0.4-13.6-2.6-34.3-5.9-52.3
	c-4.5-24.9-10.5-43.1-17.7-50.1c-14.5-14.5-28.7-14.1-38.6-1.3c-1.1,1.4-2.2,3-3.7,5l-3.7,5.3c-10.1,14.5-16.3,20.3-24.8,20.3
	c-10.5,0-13.4,0.4-17.4,2.6c-2.5,1.4-5.1,3.8-8.6,7.6c-3.8,4.3-7.8,6.7-15.9,10.4c-2.5,1.1-5,2.2-7.4,3.4c-4.5,2.2-8.7,5.1-12.3,8.6
	c-1.7,1.7-3.4,3.6-5,5.3l-1.4,1.6c-7,7.9-10.9,11.3-16.2,13.4c-7,2.8-14.4,1.6-23.1-4.6c-9.6-6.9-11.6-12.1-10.4-19.5
	c0.4-2.8,0.4-3.4-0.1-4.1c-0.8-0.9-3-1.3-7.5-1.3c-8.7,0-11.9-3.4-13-11.1l-0.3-1.7c-0.9-6.3-2-8.2-6.5-8.2h-34.3
	c-6.6,0-10,2.6-11.5,8.3c-1.2,4.5-1.2,8.7-0.3,22.1c0.4,5,0.5,10,0.5,15c0,6.3,0.4,8.7,5,25L499.9,790.7L499.9,790.7z M518,790.7
	c-1.7-8.7-2.1-14.1-1.8-19.5c0-0.9,0.1-1.8,0.3-3.2l0.3-3.4c0.4-5,0.7-9.2,0.7-14.8c0-6.5,2-10.3,5.5-11.1c3.2-0.8,7.4,0.7,12.1,4
	c8.7,5.9,18.4,17.3,21.7,25.3c6.3,15,18.6,20.7,44.1,20.7c11.3,0,18.8-3,27.3-10.4c2-1.7,19.9-19.8,27.7-26.4
	c9.5-8,15.5-10,27.1-10.9c7.2-0.7,10.5-1.2,15-3.2c6.1-2.6,12.4-7.2,19.6-14.9c9.8-10.3,17.4-11.7,23.1-5.7c4.3,4.7,7.2,14,9,26.6
	c0.9,6.9,1.2,10.1,2.1,22.9c0.3,5,0.3,7-1.2,23.7h-1.3c1.4-16.7,1.6-18.8,1.2-23.7c-0.8-12.7-1.1-16.1-2.1-22.8
	c-1.7-12.5-4.5-21.5-8.7-26c-5-5.4-11.7-4.1-21.1,5.7c-7.5,7.8-13.8,12.5-20,15.2c-4.7,2-8,2.6-15.3,3.2
	c-11.6,0.9-17.4,2.9-26.6,10.7c-7.8,6.6-25.7,24.6-27.7,26.4c-8.6,7.5-16.5,10.7-28.1,10.7c-26.1,0-38.9-5.8-45.5-21.5
	c-3.3-7.9-12.8-19-21.3-24.8c-4.5-3-8.4-4.3-11.1-3.8c-2.9,0.7-4.5,3.8-4.5,9.9c0,5.7-0.3,9.9-0.7,14.9l-0.3,3.4
	c-0.1,1.2-0.1,2.2-0.3,3c-0.3,5.4,0.1,10.8,1.8,19.5L518,790.7L518,790.7z M667.8,790.7c3.3-4.3,11.7-15.5,14.4-18.8
	c7.2-9.2,17.1-16.3,25.6-18.3c9.2-2.2,15.2,2,15.2,12.1c0,5.3,0,6.9-0.9,25h-1.3c0.9-18.2,0.9-19.8,0.9-25c0-9.4-5.1-12.9-13.6-10.9
	c-8,2-17.8,9-24.8,17.9c-2.5,3.2-10,13.3-13.7,18.1H667.8L667.8,790.7z M654.7,344c4.5,3.6,9.2,6.7,15,10.3c1.4,0.8,11.1,6.5,13.6,8
	c14.9,9.2,19.8,17.7,16.2,33.3c-2,8.6-5.9,14.6-12.4,19c-5,3.4-10.7,5.7-21.2,8.7c-15.8,4.6-18.1,5.3-24.8,8.3
	c-3.6,1.6-7,3.4-10.3,5.5c-14.6,9.4-25.2,10.1-36.9,4.3c-4.7-2.4-22.7-14.5-22.7-14.5c-2.2-1.4-4.5-2.8-6.9-4.1
	c-21.1-11.6-45.2-31.9-45.5-42c-0.1-4.6,2.6-8.7,8.3-13.6c1.3-1.2,2.9-2.4,4.9-4c0.9-0.7,4.5-3.4,5.1-4c5.9-4.5,9.5-7.6,12.3-11.2
	c14.6-18.2,34.9-37.8,45.3-42.6c15.9-7.2,26.1-7.6,36.1,0.1c4.2,3.3,7.4,8.6,11.3,17.7c0.4,0.8,3,7.1,3.8,8.8
	c2.1,4.7,3.8,7.6,5.5,9.1C652.9,342.4,653.8,343.2,654.7,344L654.7,344z M650.3,343.7c-2.1-1.8-4-4.9-6.3-10c-0.8-1.7-3.4-8-3.8-9
	c-3.7-8.6-6.7-13.6-10.5-16.6c-9-7.1-18.3-6.7-33.3,0.1c-9.9,4.5-29.9,23.9-44.3,41.8c-3,3.7-6.7,7-12.8,11.6l-5.1,4
	c-1.6,1.2-3.2,2.5-4.7,3.8c-5.1,4.3-7.5,7.9-7.4,11.5c0.3,8.7,23.9,28.6,44.1,39.7c2.4,1.3,4.6,2.6,7,4.1
	c0.1,0.1,17.9,12.1,22.4,14.4c10.8,5.4,20.4,4.6,34.3-4.2c3.4-2.1,7-4.1,10.7-5.7c6.9-3.2,9.2-3.8,25.2-8.4
	c10.3-2.9,15.7-5,20.4-8.3c5.8-4,9.5-9.5,11.3-17.4c3.2-14.5-1.1-21.9-15.2-30.6c-2.5-1.6-12.1-7.1-13.6-8
	c-5.9-3.6-10.7-6.7-15.3-10.4C652.1,345.3,651.2,344.5,650.3,343.7L650.3,343.7z M115.6,318.4c5.7-4,10.4-6.6,15.9-9.1
	c1.1-0.5,2.2-1.1,3.7-1.6l5.8-2.5c8-3.4,15.8-7.4,23.3-11.9c11.9-7,24.1-13.3,36.8-19.1c5.5-2.5,28.9-12.9,27.9-12.5
	c25.3-11.3,37-9.1,65.2,10.7c10.4,7.2,17.4,17.4,21.6,29.9c4,11.6,5,21.7,5,36.6c0,10.9-0.9,17.1-4.9,25
	c-5.5,11.1-16.2,21.2-33.7,31c-32.2,17.8-51.1,36.2-69.6,63c-11.6,16.9-63,58.2-85.9,71.3c-27.9,15.7-62.3,28.9-85.9,28.9
	c-13.2,0-19.4-6.3-19.5-17.7c-0.1-8.3,2.8-18.1,8.3-32c4-9.8,2.6-17-2.9-29.4c-4.2-9.5-5.1-12-5.1-16.5s2.5-9.1,7.2-14.6
	c3.4-4,4.6-5,15.7-15.2c6.7-6.2,10.7-10,14.1-14.2c12.5-15,16.6-25.7,23.6-59c4.1-19.8,8.7-26.8,19.9-33.2c1.1-0.7,5.1-2.9,6.2-3.6
	C111,321.4,113.4,320,115.6,318.4L115.6,318.4z M116.4,319.5c-2.4,1.6-4.7,3.2-7.1,4.5l-6.2,3.6c-10.8,6.3-15.3,12.9-19.4,32.4
	c-7,33.6-11.2,44.4-23.9,59.6c-3.6,4.2-7.5,8.2-14.2,14.2c-11.1,10-12.1,11.2-15.5,15c-4.6,5.3-7,9.8-7,13.7c0,4.2,0.9,6.7,5,15.9
	c5.7,12.7,6.9,20.3,2.9,30.4c-5.5,13.8-8.3,23.5-8.2,31.5C23,551,28.5,556.7,41,556.7c23.3,0,57.6-13,85.4-28.9
	c22.8-13,73.9-54.3,85.4-71c18.6-26.9,37.7-45.6,70.1-63.5c17.3-9.5,27.8-19.6,33.2-30.3c3.8-7.8,4.7-13.7,4.7-24.4
	c0-14.6-0.9-24.6-4.9-36.1c-4.1-12.1-11.1-22.1-21.2-29.3c-27.8-19.5-39.1-21.6-63.9-10.4c0.9-0.4-22.4,10-27.9,12.5
	c-2.2,1.1-4.3,2.1-6.5,3c-10.3,4.9-20.4,10.3-30.2,16.1c-7.6,4.5-15.4,8.4-23.5,11.9l-5.8,2.5c-1.3,0.5-2.5,1.1-3.7,1.6
	C126.7,313,121.4,316,116.4,319.5z M106.4,335.5c10.1-8.2,16.2-10.8,31.2-14.9c8-2.2,12-3.8,16.2-7.5c5-4.3,9.9-5.9,21-8
	c3.7-0.7,4.9-0.9,6.7-1.3c7.2-1.6,12.5-3.8,17.3-7.8c13.7-11.2,33.5-18.6,47.8-18.6c7,0,22.1,10,33.9,22.7
	c14.1,15.2,21.1,30.7,16.7,42.8c-4.2,12-15,24.5-30.3,36.8c-11.1,8.8-24.2,17.1-33.2,21.6c-4.9,2.5-8.7,6.5-12.9,13.2
	c-0.9,1.4-14.6,26.6-21.1,36.6c-7.4,11.3-20.3,22.9-39.8,36.9c-4,2.9-8,5.7-12.1,8.4c-0.1,0.1-9,6.1-11.3,7.8
	c-8.6,5.9-13.6,9.8-17.3,12.9c-15.3,14.1-48.9,20.4-57.6,11.9c-2.6-2.6-2.9-5.4-2.6-13.8c0.5-12.4-0.7-19.1-6.6-27
	c-2.6-3.4-5.8-6.6-9.2-9.1c-5.1-4-8-8-8.7-12.5c-1.3-8.7,5.1-17.3,18.7-28.6c2.1-1.7,8.8-7.1,9.4-7.6c2.5-2,4.7-4.1,6.9-6.3
	c5.4-6.1,7.6-12.5,10.3-26.5c0.4-2,0.7-3.8,1.1-5.8c0.4-2.5,0.8-4.3,1.2-6.2c0.9-5,2-9.5,3.2-14c1.3-5,1.8-7.2,3.2-13.7
	c0.8-4,1.2-5.5,2.1-7.2C91.9,347.4,91.9,347.3,106.4,335.5L106.4,335.5z M107.2,336.6c-14.2,11.5-14.4,11.6-15.8,14.6
	c-0.8,1.6-1.2,3-2,6.9c-1.3,6.5-1.8,8.7-3.2,13.7c-1.2,4.5-2.2,9-3.2,14c-0.7,3-1.2,6.1-1.7,9.2l-0.5,2.8c-2.6,14.1-5,20.7-10.5,27
	c-2.2,2.4-4.5,4.5-7,6.5c-0.5,0.4-7.2,5.9-9.4,7.6c-13.2,11.1-19.4,19.2-18.2,27.4c0.7,4.1,3.2,7.9,8.2,11.6c4,2.9,7.1,6.1,9.5,9.4
	c6.1,8.2,7.2,15.2,6.9,27.8c-0.3,8,0,10.7,2.2,12.9c8,8,40.9,1.7,55.7-11.9c3.7-3.3,8.8-7.1,17.4-13l11.3-7.8
	c4.7-3.3,8.4-5.8,12.1-8.4c19.4-13.8,32.2-25.3,39.5-36.5c6.5-9.9,20.2-35.2,21.1-36.6c4.3-7,8.3-11.1,13.4-13.7
	c9-4.5,21.9-12.7,32.9-21.5c15.2-12.1,25.8-24.4,29.9-36.1c4.1-11.6-2.6-26.8-16.5-41.5c-11.6-12.4-26.4-22.1-32.9-22.1
	c-14.1,0-33.5,7.2-47,18.3c-5,4.1-10.4,6.3-17.8,8c-1.8,0.4-3.2,0.7-6.7,1.3c-10.8,2.1-15.5,3.6-20.3,7.8c-4.3,3.8-8.4,5.5-16.7,7.8
	C123.1,326.1,117.2,328.4,107.2,336.6L107.2,336.6z M279.4,332c0,10-0.8,14.4-3.4,18.8c-1.4,2.4-10.1,13.2-11.3,14.9
	c-7.9,10.4-12.3,13.6-22.8,18.2c-1.7,0.8-2.9,1.3-4,2c-0.8,0.4-1.6,0.9-2.6,1.3c-0.9,0.4-5.9,2.5-7.2,3.2c-8,3.7-11.9,7.6-11.9,14.1
	c0,14.5-24.9,47.6-45.5,59.2c-10.8,6.1-28.1,12.4-43.2,15.7c-17.5,3.8-29.7,3.3-32.4-3c-1.7-4-5.8-5.7-15.8-7.6l-0.8-0.1
	c-6.3-1.3-9.1-2-11.9-3.4c-3.8-2-5.9-4.9-5.9-9c0-3.6,1.4-7.6,4.2-12.8c1.1-2,2.4-4.1,4.2-7.1c-0.3,0.3,3.7-5.8,4.9-7.6
	c8.8-14.1,12.9-24.4,12.9-35.8c0-24.2,14.8-44,36.2-56.5c6.9-4.1,12.1-4.3,20-2.8c6.6,1.3,8,1.2,9.8-2c5.9-10.4,9.2-12.5,21-12.5
	c5.1,0,9.2-1.3,13.8-4.2c2.1-1.3,11.5-8.2,14.5-10.1c12.1-7.9,14.9-9.2,33.2-15.7c9.1-3.3,20,1.7,29.4,12
	C273.5,310.2,279.4,322.6,279.4,332L279.4,332z M276.8,332c0-8.6-5.5-20.4-13.8-29.4c-8.8-9.6-18.7-14.1-26.6-11.3
	c-18.1,6.5-20.7,7.8-32.7,15.5c-2.9,2-12.4,8.8-14.5,10.1c-5,3.2-9.5,4.6-15.2,4.6c-10.7,0-13.2,1.6-18.6,11.2
	c-1.4,2.5-3.3,3.8-5.7,4.1c-1.7,0.1-2.5,0.1-6.9-0.8c-7.2-1.4-12-1.2-18.2,2.5c-20.8,11.9-35.1,30.8-35.1,53.9
	c0,12.1-4.3,22.8-13.4,37.3l-4.9,7.6c-1.8,2.9-3,5-4.2,6.9c-2.6,4.7-4,8.4-4,11.5c0,5.5,3.8,7.5,15.7,9.9l0.8,0.1
	c10.9,2.2,15.4,4.1,17.7,9.2c4.2,9.4,47.4,0,72-13.8c19.8-11.1,44.1-43.5,44.1-56.8c0-7.8,4.6-12.5,13.4-16.5
	c1.4-0.7,6.5-2.8,7.2-3.2c0.9-0.4,1.7-0.8,2.4-1.2c1.2-0.7,2.5-1.3,4.2-2.1c10-4.5,14.2-7.2,21.7-17.3c1.3-1.8,9.9-12.4,11.2-14.6
	C276.1,345.4,276.8,341.5,276.8,332L276.8,332z M227.8,302.5c0.1-0.1,3.2-2,3.8-2.4c1.3-0.8,2.2-1.2,3.2-1.6
	c3.4-1.1,6.7-0.1,14.5,4.1c19.6,10.5,25.6,30.2,12.1,51c-5.3,8.2-12.4,11.9-24.6,14.6c-1.2,0.3-1.6,0.4-4.1,0.9
	c-7.9,1.7-11.6,2.8-15.3,4.7c-4.7,2.6-8,6.6-9.9,12.4c-10.4,32.8-26,57.1-47.8,66.3c-21.6,9.1-27.8,11.2-36.9,11.7
	c-6.5,0.3-12.9-0.8-20.3-3.8c-2.5-0.9-5-2.1-7.4-3.4c-5.3-3-6.7-6.2-5.9-12.3c0.4-2.8,5-20.4,6.3-27.1c0.8-4,1.6-8,2.4-12.8
	c0.7-4,1.2-7.8,1.7-11.7c1.8-12.4,3.3-18.8,5.9-24.5c3.3-7.1,8-11.9,15.4-14.6c8.7-3.3,13.8-4.1,23.7-4.6c6.3-0.4,8.8-0.8,11.9-2.6
	c0.8-0.5,1.6-1.1,2.4-1.7c1.6-1.3,3-2.9,4.5-4.5c0.8-0.9,3.2-3.8,3.4-4.2c4.5-5.3,8.3-7.2,16.2-7.2c5.1,0,7.8-1.2,10.8-4.5
	c-0.3,0.3,3.7-4.1,5.1-5.5c2.6-2.6,5.7-4.9,9-6.6c2-1.1,4.1-2.1,6.6-3.2C219.2,307.2,223.6,305,227.8,302.5L227.8,302.5z
	 M208.7,313.4c-3.2,1.7-6.1,3.8-8.7,6.3c-1.7,1.8-3.4,3.7-5,5.5c-3.3,3.4-6.2,4.9-11.7,4.9c-7.5,0-11.1,1.8-15.3,6.9
	c-0.3,0.4-2.6,3.3-3.4,4.2c-1.4,1.7-2.9,3.2-4.6,4.6c-0.9,0.7-1.7,1.3-2.6,1.8c-3.3,2-6.1,2.5-12.5,2.9c-9.8,0.5-14.8,1.3-23.3,4.6
	c-7,2.6-11.6,7.1-14.8,14c-2.5,5.7-4,12-5.8,24.2l-0.9,5.7l-0.9,6.1c-0.8,4.7-1.4,8.8-2.4,12.8c-1.4,6.9-5.9,24.4-6.3,27.1
	c-0.8,5.5,0.4,8.2,5.3,10.9c1.7,1.1,4.1,2.1,7.2,3.3c7.2,2.9,13.4,4,19.8,3.7c8.8-0.4,14.9-2.5,36.5-11.6c21.3-9,36.8-32.9,47-65.5
	c2-6.2,5.4-10.4,10.5-13.2c3.8-2.1,7.5-3.3,15.7-5c2.5-0.5,3-0.7,4.1-0.9c12-2.8,18.7-6.2,23.9-14.1c13-20.2,7.4-39-11.6-49.2
	c-7.6-4.1-10.5-5-13.4-4.1c-0.8,0.3-1.7,0.7-2.9,1.4c-0.8,0.4-3.7,2.2-3.8,2.4c-4.2,2.6-8.7,4.9-13.4,6.9
	C212.8,311.3,210.6,312.3,208.7,313.4L208.7,313.4z M152.8,356.5c21.2-3.8,34.8-1.3,42.8,8.2c6.7,7.8,1.4,28.2-7.8,46.8
	c-6.3,12.7-14,21.3-30.6,33.2c-18.7,13.3-46.8,16.1-53.6,5.1c-2.5-4-2.8-10.7-1.4-20.7c1.1-7.5,2.5-14.1,6.2-30.3l0.1-0.7
	c2.1-9,3.2-13.6,4.1-18.6c1.8-9.5,4.9-15.2,9.6-18.1c3.7-2.4,7.2-3,16.2-3.4C145.5,357.5,148.6,357.3,152.8,356.5L152.8,356.5z
	 M153.1,357.8c-4.3,0.8-7.4,1.1-14.4,1.3c-8.7,0.4-12.1,1.1-15.5,3.3c-4.2,2.8-7.1,8-9,17.3c-1.1,5-2.1,9.8-4.2,18.7l-0.1,0.7
	c-3.8,16.1-5.1,22.8-6.2,30.2c-1.3,9.8-1.1,16.3,1.2,19.9c6.3,10.1,33.6,7.5,51.8-5.4c16.3-11.7,23.9-20.3,30-32.7
	c9.1-18.1,14.2-38.2,8-45.5C186.9,356.5,173.9,354.1,153.1,357.8z M174,364.4c9.4,0,14.1,4.1,14.8,11.5c0.5,5.3-0.5,10.7-3.7,21
	c-3.4,11.2-24.2,33.5-35.8,41.2c-9.2,6.2-26.4,7.5-35.1,1.3c-5.3-3.8-4.6-15.9,0-34.9c0.9-3.7,2-7.4,3.2-11.6
	c1.3-4.5,2.6-9,4.1-13.3l0.5-1.6c2-6.3,6.7-10.3,14.1-12.3c5.8-1.6,12.5-2,23.1-1.7l5.1,0.1C169.4,364.4,171.4,364.4,174,364.4z
	 M174,365.7c-2.6,0-4.6,0-9.8-0.1l-5.1-0.1c-10.3-0.3-17,0.1-22.7,1.7c-7,1.8-11.5,5.5-13.2,11.3c-0.7,2.2-1.4,4.6-2.1,6.9
	c-0.9,2.9-1.7,5.5-2.4,8c-1.2,4.1-2.2,7.9-3.2,11.5c-4.5,18.3-5.1,30.2-0.5,33.5c8.2,5.8,24.6,4.6,33.5-1.3
	c11.5-7.6,32-29.7,35.3-40.5c3-10.1,4.1-15.4,3.6-20.6C186.8,369.3,182.7,365.7,174,365.7L174,365.7z M150.6,374.9
	c3.8,0.1,7.6,0.7,11.3,1.8c7.1,2.4,11.5,6.6,11.5,13.3c0,12.7-12.5,22.7-29.4,28.3c-12.9,4.3-17.9-2.4-15.4-21.7
	c1.1-8.3,5-14.1,10.8-17.8C142.8,376.8,146.6,375.3,150.6,374.9z M149.8,376.4c-3.4,0.5-6.7,1.7-9.6,3.6c-5.5,3.4-9.2,9-10.3,16.9
	c-2.5,18.6,1.8,24.4,13.6,20.4c16.5-5.5,28.6-15.2,28.6-27c0-6.1-4-9.9-10.5-12c-3.6-1.2-7.1-1.7-10.8-1.8
	C150.4,376.3,150.2,376.3,149.8,376.4z M256.4,345.4c-3.6,12.9-19.6,13-35.2,4.3c-13.4-7.4-18.2-23.7-6.6-30.2c2-1.1,4-2.2,5.9-3.6
	l2.6-1.7c1.7-1.1,3.4-2.1,5.1-3c6.2-3.2,11.6-3.7,18.4-0.9C258.9,315.2,261.2,328,256.4,345.4L256.4,345.4z M229,312.5
	c-1.7,0.9-3.4,1.8-5,2.9l-2.6,1.7c-1.1,0.7-2,1.2-2.9,1.8c-1.1,0.7-2.1,1.3-3.2,1.8c-10.4,5.8-6.1,20.8,6.6,27.8
	c14.9,8.3,30,8.2,33.3-3.6c4.7-16.9,2.5-29-8.8-33.5C239.8,309.1,234.8,309.4,229,312.5L229,312.5z M252.4,328.6
	c0,7.5-3.2,11.9-8.7,13.2c-4.3,1.1-10,0-14.6-2.4l-2.5-1.2c-0.9-0.4-1.6-0.8-2.1-1.2c-5.4-3.2-5.4-6.6,0.4-14.4
	C233.8,310.5,252.4,313,252.4,328.6L252.4,328.6z M251.1,328.6c0-7-3.8-11.3-9.6-12.1c-5.5-0.8-11.9,1.8-15.5,6.9
	c-5.4,7.2-5.4,9.8-0.8,12.5c0.5,0.3,1.2,0.7,2.1,1.2l2.5,1.2c4.3,2.2,9.8,3.2,13.7,2.2C248.3,339.2,251.1,335.4,251.1,328.6
	L251.1,328.6z M510,698.9c0-16.9,3.2-22,24.4-39.3c3.2-2.5,6.5-4.9,10-6.9c3.4-2,7-3.7,11.2-5.5c1.6-0.7,3.3-1.3,5.4-2.2l5.1-2.1
	c12.4-5,18.1-8.8,21.9-15.8c1.6-2.9,2.9-5.8,4.2-9c0.7-1.7,1.3-3.4,2-5l0.4-0.9l0.8-1.8c4.2-10.5,7.9-15.9,16.7-21.7
	c2.4-1.6,4.5-3.3,6.6-5.3c1.8-1.7,3.6-3.7,5.1-5.7c0.4-0.4,3.3-4.2,4.2-5.3c4.6-5.4,8.6-7.8,15.2-7.8c4.1,0,7.4-0.8,12.7-2.8
	c7.1-2.6,8.6-3,11.9-2.9s6.5,1.7,9.5,4.7c1.7,1.7,7.2,7.6,8.6,9c6.7,6.6,12.4,9.1,23.5,9.1c5.3,0,10.7,0.3,15.9,0.7
	c21,1.2,28.9,0.8,33.3-2.9c9.1-7.6,15.3-3.6,15.3,10.3c0,14.1-11.3,26.4-25,26.4c-6.3,0-10.9,1.8-12.3,4.9c-1.4,3.3,0.9,8,7.9,14
	c17.9,14.9,14.8,27.4-10,27.4c-7-0.1-13.8,2.4-19.2,6.9c-4.3,3.6-7.6,7.8-12.9,15.5l-2,2.9c-4.1,6.1-6.6,9.4-9.6,12.4
	c-8.2,8.2-12.3,10-17.1,9.1l-1.3-0.3c-1.2-0.3-2.4-0.5-3.6-0.5c-2.1,0-3.2,0.9-10.8,8.2c-6.5,6.2-10.7,9-15.5,9
	c-1.7,0-4.6,1.6-8.6,4.6c-1.7,1.3-3.6,2.8-5.9,4.9l-6.5,5.7c-2,1.7-4,3.4-5.9,5c-12.3,10-20.6,13.4-26.6,8.6
	c-3.6-2.9-5.4-5.9-6.1-9.6c-0.5-2.6-0.4-4.7,0.4-9.6c1.2-7.6,0.8-11.1-2.4-15.3c-3-4-4-4.2-5-3.2c-0.3,0.4-1.8,2.1-2.1,2.5
	c-2.9,3.3-6.5,4.7-11.9,3.7c-6.1-1.1-7.4-5.4-6.2-13.3l0.3-2.1c0.8-4.9,0.9-6.5,0.3-7.6c-0.5-1.2-2.5-1.2-6.9,0.5l-0.9,0.4
	c-18.2,7.2-20.2,8-25.6,8.8C514.4,710.3,510,707.2,510,698.9L510,698.9z M512.7,698.9c0,6.6,2.8,8.7,9.2,7.8c5.1-0.7,7.1-1.4,25-8.6
	l1.1-0.4c5.5-2.2,8.8-2,10.3,0.8c0.9,1.8,0.8,3.7-0.1,9.2l-0.3,2c-0.9,6.6-0.1,9.6,4.1,10.3c4.5,0.8,7.1-0.3,9.4-2.9
	c0.3-0.3,1.7-2.2,2.2-2.6c2.5-2.6,5-1.6,9,3.3c3.8,4.9,4.2,9,2.9,17.3c-1.3,9-0.7,12.4,4.7,16.7c4.6,3.7,12,0.7,23.3-8.6
	c1.8-1.4,3.7-3,5.9-5l6.5-5.7c2.4-2.1,4.3-3.7,6.1-5c4.3-3.4,7.5-5.1,10.1-5.1c4,0,7.9-2.5,13.7-8.2l3.3-3.2
	c1.2-1.2,2.2-2.1,3.2-2.8c2.4-2,4.3-3,6.2-3c1.3,0,2.4,0.1,4.1,0.5c0.9,0.3,0.9,0.3,1.3,0.3c4,0.8,7.2-0.7,14.8-8.3
	c2.9-2.9,5.4-6.2,9.4-12l2-2.9c5.5-8,9-12.4,13.4-16.1c5.8-5,13.3-7.6,21-7.5c22.3,0,24.5-9.2,8.4-22.7c-7.8-6.5-10.7-12.4-8.6-17
	c1.8-4.1,7.5-6.3,14.8-6.3c12.1,0,22.4-10.9,22.4-23.7c0-11.7-3.8-14.2-11.1-8.2c-5.1,4.3-13.2,4.7-35.2,3.6l-1.3-0.1
	c-6.7-0.4-10.5-0.5-14.5-0.5c-11.7,0-18.2-2.8-25.3-9.9c-1.3-1.3-7-7.2-8.6-9c-2.6-2.6-5.1-3.8-7.8-4s-4.1,0.3-10.7,2.8
	c-5.4,2-9.1,2.9-13.6,2.9c-5.7,0-9,2-13.2,6.9c-0.8,0.9-3.8,4.7-4.2,5.3c-1.7,2.1-3.4,4.1-5.3,5.9c-2.1,2.1-4.5,4-6.9,5.5
	c-8.3,5.5-11.7,10.4-15.8,20.6l-0.8,1.8l-0.4,0.9c-0.7,1.7-1.3,3.4-2.1,5.1c-1.3,3.2-2.8,6.2-4.3,9.2c-4.2,7.8-10.3,11.9-23.2,17.1
	l-5.1,2.1c-2.1,0.8-3.7,1.4-5.3,2.2c-3.7,1.6-7.4,3.4-10.9,5.4c-3.4,2-6.6,4.2-9.8,6.6C515.5,678.4,512.7,682.9,512.7,698.9
	L512.7,698.9z M688.2,593.7c4.1,2,8.6,2.6,14.1,2.2c3.3-0.3,6.5-0.8,11.6-2c7.1-1.6,8.3-1.8,10.9-2c3.7-0.3,6.3,0.3,8.3,1.8
	c2.1,1.7,2.6,3.6,1.7,5.5c-0.9,1.8-1.3,2.2-6.6,6.7c-4.6,3.8-6.6,6.3-6.6,9.4c0,9.6,1.7,13.2,10.3,20.6c5.1,4.3,7.8,9,7,12.7
	c-1.1,4.2-6.6,6.6-16.6,6.6c-9.5,0-16.7,6.1-26.4,19.4c-0.7,0.9-5.3,7.4-6.5,9.1c-1.8,2.6-4,5-6.2,7.2c-1.4,1.3-2.8,2.2-4.1,2.9
	c-3.7,1.7-6.6,2.1-12.9,2.2c-10.1,0.4-14.4,2-19.8,9.4c-2.1,2.9-4.1,5.3-6.2,7.4c-3.4,3.4-7.2,6.3-11.3,8.8
	c-0.1,0.1-14.1,8.2-19.5,11.6c-5,3.2-8.6,2.6-10.8-1.1c-1.7-2.6-2.5-5.9-3.8-13.6c-1.1-6.7-1.7-9.4-2.8-11.7c-1.3-3-2.9-4.2-5.3-3.8
	c-8.2,1.6-11.9,1.8-14.5,0.3c-3.2-1.8-4.1-6.1-3.4-14.1c0.3-2.6-1.3-3.8-5-4c-2.9-0.1-6.5,0.3-13,1.4l-0.9,0.1
	c-10.5,2-14.1,2.2-16.7,0.9c-3.8-1.8-2.1-7,5.5-16.1c7.2-8.6,14-14.2,20.8-17.8c4.9-2.6,7.8-3.4,16.1-5.4
	c9.6-2.2,13.7-4.6,18.4-12.3c4-6.3,14.1-24.5,15.9-27.4c4.7-7.5,9-12,14.5-14.9c3.4-1.8,6.2-3.7,12.1-8l1.8-1.3
	c10.4-7.5,16.2-10.5,23.3-10.5c5.5,0,8.6,1.8,12,6.3c0.4,0.5,2.2,2.9,2.6,3.6c1.1,1.4,2.1,2.6,3.3,3.7
	C682,590,685,592.1,688.2,593.7L688.2,593.7z M687.7,594.9c-3.7-1.8-6.6-4-9.1-6.6c-1.2-1.2-2.2-2.4-3.3-3.8
	c-0.5-0.7-2.2-2.9-2.6-3.6c-3.3-4.2-5.9-5.8-10.9-5.8c-6.7,0-12.4,2.9-22.5,10.3l-1.8,1.3c-5.9,4.3-8.7,6.2-12.3,8
	c-5.4,2.8-9.5,7.2-14.1,14.5c-1.8,2.9-12.1,21.1-15.9,27.4c-5,8-9.4,10.5-19.4,12.9c-8,2-10.9,2.8-15.7,5.3
	c-6.6,3.6-13.2,9.1-20.4,17.5c-7.1,8.6-8.6,12.8-5.9,14.1c2.2,1.1,5.9,0.8,15.9-1.1l0.9-0.1c6.7-1.2,10.3-1.7,13.4-1.4
	c4.2,0.3,6.5,2,6.2,5.4c-0.7,7.6,0.3,11.3,2.8,12.9c2.2,1.3,5.7,1.2,13.6-0.4c3.2-0.7,5.3,1.1,6.7,4.6c1.1,2.6,1.7,5.3,2.8,11.6
	l0.1,0.5c1.2,7.5,2,10.7,3.6,13.2c2,3,4.6,3.4,9,0.7c5.4-3.6,19.4-11.6,19.5-11.6c4.1-2.4,7.8-5.3,11.2-8.6c2.2-2.2,4.2-4.6,6.1-7.2
	c5.7-7.9,10.3-9.5,20.7-9.9c6.2-0.3,9-0.7,12.5-2.2c1.2-0.5,2.4-1.4,3.7-2.6c2.2-2.1,4.2-4.5,6.1-7.1c1.3-1.7,5.8-8.2,6.5-9.1
	c9.9-13.6,17.4-19.9,27.4-19.9c9.5,0,14.5-2.1,15.3-5.5c0.7-3-1.8-7.2-6.6-11.3c-9-7.6-10.8-11.6-10.8-21.6c0-3.6,2.1-6.2,7.1-10.4
	c5-4.2,5.5-4.7,6.3-6.2c0.7-1.4,0.3-2.6-1.3-4c-2.9-2.5-6.2-2.1-18.2,0.5c-5.1,1.2-8.3,1.7-11.7,2
	C696.8,597.8,691.9,597,687.7,594.9L687.7,594.9z M650.8,589.7c7.4-3.7,11.9-2.9,17,1.8c0.8,0.7,3.4,3.3,4,3.8
	c5.5,5.1,10.7,7.5,18.8,7.5c15,0,18.4,1.8,21.2,10.7c0.4,1.1,1.7,6.1,2.2,7.4c1.1,3.4,2.1,6.6,3.6,10c2.8,6.9,3.4,10.9,2.2,13.4
	c-1.1,2.1-2.8,2.9-7.1,3.7c-3,0.5-3.7,0.7-5,1.2c-2.4,0.8-4.3,1.8-6.1,3.6c-1.3,1.3-2.6,2.8-4.3,4.9c-0.8,0.9-3.8,4.6-4.6,5.4
	c-9.5,11.2-16.3,16.3-25.8,16.3c-5,0-9.2,1.7-14,5.3c-2.4,1.8-15.3,13.6-20,17.3c-3.7,2.9-7.6,5.4-11.9,7.8
	c-6.1,3.3-9.8,4.2-11.9,2.9c-1.7-1.1-2.1-2.8-2.5-7.2c0-0.8-0.1-1.6-0.3-2.4c-0.7-6.2-2.9-9.1-9.5-9.1c-9.4,0-11.7-1.6-12.8-7.1
	c-1.3-6.1-2.8-8.8-8.6-12.8c-5.3-3.4-5.7-7.1-2-10.8c2.6-2.6,6.1-4.6,15-9.1c8.7-4.3,12.1-6.3,14.6-8.8c2.6-2.6,5-5.4,7-8.6
	c1.3-2,2.4-4,3.8-6.7l2.8-5.7c1.2-2.4,2.2-4.5,3.4-6.6C627.7,604.1,633.8,598.3,650.8,589.7L650.8,589.7z M621.3,618.3
	c-1.2,2.1-2.2,4.1-3.4,6.5l-2.8,5.7c-1.2,2.4-2.5,4.6-3.8,6.9c-2.1,3.2-4.5,6.1-7.1,8.7s-6.1,4.6-15,9.1c-8.7,4.3-12.1,6.3-14.6,8.8
	c-3,3-2.8,5.8,1.8,8.8c6.2,4.1,7.9,7.2,9.2,13.6c1.1,4.9,2.8,6.1,11.6,6.1c7.2,0,10,3.4,10.7,10.3c0.1,0.7,0.1,1.1,0.3,2.4
	c0.3,4.1,0.7,5.5,2,6.2c1.6,0.9,4.9,0.1,10.5-2.9c4.1-2.2,7.9-4.9,11.6-7.6c4.6-3.6,17.5-15.4,20-17.3c5-3.7,9.5-5.5,14.8-5.5
	c9,0,15.5-4.9,24.8-15.8l4.6-5.4c1.4-1.7,2.9-3.3,4.5-4.9c1.8-1.8,4.1-3.2,6.6-3.8c1.4-0.4,2.1-0.7,5.3-1.2c4-0.7,5.4-1.3,6.2-2.9
	c1.1-2.1,0.4-5.9-2.2-12.4c-1.3-3.3-2.6-6.7-3.6-10.1c-0.4-1.3-1.8-6.3-2.2-7.4c-2.6-8.2-5.5-9.8-19.9-9.8c-8.6,0-14-2.5-19.8-7.9
	c-0.5-0.5-3.3-3.2-4-3.8c-4.7-4.3-8.6-5.1-15.5-1.6C634.6,599.4,628.8,605,621.3,618.3L621.3,618.3z M694.9,634.2
	c-4,8.6-22.1,20.2-35.2,20.2c-7,0-10-4-9.4-10.4c0.4-4.6,2.8-10.4,5.1-14l2-3c0.8-1.2,1.6-2.4,2.5-3.6c4.9-6.3,10.4-9.9,17.9-9.9
	C689.9,613.5,698.8,626,694.9,634.2L694.9,634.2z M693.7,633.5c3.3-7.2-4.9-18.8-15.8-18.8c-7.1,0-12.3,3.3-16.9,9.4
	c-0.8,1.1-1.6,2.1-2.5,3.4c0,0-1.6,2.5-2,3c-2.2,3.4-4.6,9.1-5,13.3c-0.5,5.7,1.8,9,8,9C672.3,652.9,690.1,641.5,693.7,633.5
	L693.7,633.5z M601.9,660.9c2.8,0.3,5.8,1.1,7.8,2.4c2.8,2,2.9,4.7-0.4,7.9c-6.7,6.7-17,5.7-17-1.8
	C592.4,663.3,596.5,660.4,601.9,660.9L601.9,660.9z M601.8,662.2c-4.7-0.4-8,2-8,7.2c0,6.1,8.6,7,14.6,0.8c2.6-2.6,2.6-4.5,0.5-5.9
	C607.3,663.1,604.4,662.4,601.8,662.2L601.8,662.2z M640.8,364.4c6.1,3.2,22.8,10.8,25.6,12.4c3.6,1.8,6.7,4.3,9.2,7.4
	c1.8,2.1,3.4,4.5,5,6.9c3.2,5,0,10.1-8.2,15.3c-6.6,4.2-16.1,8.3-29,12.9c-6.3,2.2-25.8,8.8-27.8,9.5c-8.7,3-19.6,0.1-33.1-7.8
	c-5.1-3-10.5-6.6-17-11.2c-2.9-2.1-12.5-9.2-14.1-10.4c-3.7-2.8-7.4-5.3-11.3-7.5c-6.3-3.4-5.9-8.7,0.3-15.9
	c4.3-5.1,5.5-6.2,23.9-21.5c4-3.3,7.9-6.7,11.7-10.1c2.1-2,4.2-4.1,6.2-6.2c6.7-7.1,12.9-8.6,19.8-5.1c2.9,1.4,5.9,3.8,9.8,7.2
	c2,1.8,9.1,8.8,10.5,10.1C628.9,357,634.6,361.4,640.8,364.4L640.8,364.4z M640.2,365.6c-6.5-3.3-12.1-7.6-19-14.2
	c-1.3-1.3-8.6-8.3-10.5-10.1c-3.7-3.4-6.7-5.7-9.5-7.1c-6.3-3.2-11.9-1.8-18.2,4.9c-2,2.1-4.1,4.2-6.3,6.2c-3.3,3-6.9,6.1-11.7,10.3
	c-18.3,15.3-19.5,16.3-23.7,21.3c-5.7,6.7-6.1,11.1-0.7,14c2.9,1.6,6.5,4,11.5,7.6c1.6,1.2,11.2,8.2,14.1,10.4
	c5.4,4,11.1,7.8,17,11.2c13.3,7.6,23.9,10.5,32,7.6c2-0.7,21.5-7.2,27.8-9.5c12.8-4.6,22.3-8.7,28.7-12.8c7.6-4.9,10.4-9.4,7.8-13.6
	c-1.4-2.4-3-4.6-4.9-6.7c-2.5-2.9-5.5-5.4-9-7.1C662.9,376.5,646.3,368.7,640.2,365.6L640.2,365.6z M589,376.3
	c4.1-0.5,7.5-0.1,11.1,0.9c2.8,0.9,3.6,1.2,11.3,5c6.3,3,11.1,5.1,17.4,7.4c11.1,4,14.9,8.2,11.6,12.9c-2.8,3.8-10.5,7.8-23.5,12.1
	c-11.2,3.7-20.4,3.2-28.2-1.2c-6.1-3.3-10.9-8.6-15.9-16.2c-3.8-5.8-3.6-10.8,0.3-14.6C576.2,379.2,582,377.1,589,376.3L589,376.3z
	 M589.2,377.6c-6.7,0.8-12.3,2.9-15.3,5.8c-3.3,3.3-3.6,7.6,0,12.9c4.9,7.5,9.6,12.5,15.5,15.8c7.5,4.1,16.3,4.7,27.1,1.1
	c12.7-4.2,20.3-8,22.8-11.6c2.5-3.7-0.7-7.2-11.1-10.8c-6.3-2.2-11.2-4.3-17.5-7.4c-7.6-3.7-8.4-4.1-11.2-4.9
	C596.4,377.3,592.7,377.1,589.2,377.6L589.2,377.6z M266.9,659.5c0,6.3-1.8,10-5.8,11.7c-3,1.3-6.1,1.6-14.2,1.6h-2.4
	c-12.1,0-22.4-10-22.4-20.4c0-10,14-13.8,26-7.1c3.7,2,5.5,2.5,11.3,3.7C265.3,649.8,266.9,651.8,266.9,659.5L266.9,659.5z
	 M265.6,659.5c0-7-1.2-8.3-6.5-9.4c-5.8-1.1-7.9-1.6-11.7-3.8c-11.3-6.3-24.1-2.8-24.1,6.1c0,9.6,9.8,19.1,21.1,19.1h2.4
	c8,0,10.9-0.1,13.7-1.4C263.9,668.4,265.6,665.3,265.6,659.5L265.6,659.5z M309.5,504.1c4.9-1.7,11.5-3.6,21.2-5.9
	c3.4-0.8,21.7-5.3,27.1-6.6c25.8-6.5,41.5-11.7,50.3-17.7c19.6-13.2,48.6-44.7,57.7-63c2.9-5.9,6.1-8.4,10.1-8.2
	c1.7,0.1,3.4,0.7,5.7,1.6c1.6,0.7,3.2,1.4,4.6,2.2l1.7,0.8c6.3,3,11.1,4.5,16.6,4.5c9.5,0,13.2,4.1,11.1,10.4
	c-1.8,5.4-7.8,11.7-14.6,15.8c-10.9,6.6-15.5,22.8-15.5,44.3c0,4.7-1.8,8.3-5.3,11.1c-2.6,2.1-5.5,3.4-11.2,5.5l-1.3,0.5
	c-6.5,2.4-9.2,3.7-11.5,5.9c-6.7,6.7-16.5,9.4-26.9,9.4c-1.8,0-3.3,1.2-5.3,4.1c-0.4,0.5-1.7,2.6-2,2.9c-3.6,5.1-6.5,7.5-11.2,7.5
	c-10.3,0-14.1,1.2-28.7,9.1c-6.9,3.7-11.6,4.7-19.4,4.9c-0.4,0-0.7,0-1.2,0c-6.3,0.1-9.4,0.4-13.8,1.7c-4,1.3-7.9,2.9-11.7,4.7
	c-2.9,1.3-13.8,6.6-13.4,6.5c-10.3,4.9-17.5,7.9-24.9,10c-16.3,4.6-24.5,2.9-36.1-5.4c-3.4-2.5-3.6-5.8-1.1-10
	c1.8-3.3,5.1-6.7,10.7-11.9l2.4-2.1c5.1-4.7,5.9-5.4,7.8-7.2c3-3,4.1-4.6,7.2-10c2.5-4.5,4.5-6.7,8.3-9.4
	C300.1,507.9,304.1,506.1,309.5,504.1L309.5,504.1z M310,505.4c-5.3,1.8-9.2,3.7-12.1,5.7c-3.7,2.5-5.4,4.6-7.9,8.8
	c-3.2,5.5-4.2,7.1-7.4,10.3c-1.8,1.8-2.6,2.6-7.8,7.4l-2.4,2.1c-5.4,5-8.6,8.4-10.4,11.6c-2.1,3.7-2,6.3,0.8,8.3
	c11.3,8,19.1,9.8,35.1,5.1c7.2-2.1,14.5-5,24.6-9.9c-0.4,0.1,10.7-5.1,13.4-6.5c3.8-1.8,7.8-3.4,11.9-4.7c4.6-1.4,7.8-1.7,14.2-1.8
	h1.2c7.5-0.1,12.1-1.1,18.7-4.7c14.8-8,18.7-9.4,29.3-9.4c4.2,0,6.9-2.1,10.1-7l2-2.9c2.2-3.2,4-4.6,6.3-4.6c10,0,19.5-2.6,25.8-9.1
	c2.4-2.4,5.3-3.8,11.9-6.2l1.3-0.5c11.3-4.1,15.5-7.5,15.5-15.3c0-21.9,4.6-38.5,16.1-45.3c6.6-4,12.4-10.1,14.1-15.2
	c1.8-5.4-1.1-8.7-9.8-8.7c-5.9,0-10.8-1.4-17.3-4.6c-9.9-4.9-9-4.3-11.5-4.5c-3.4-0.1-6.1,2-8.8,7.5c-9.2,18.6-38.3,50.2-58.2,63.5
	c-9,5.9-24.8,11.2-50.7,17.8c-5.3,1.3-23.7,5.8-27.1,6.6C321.3,501.8,314.8,503.7,310,505.4L310,505.4z M332.1,510.7
	c2.8,0,5.3-0.3,9.5-0.9c6.9-1.1,8.7-1.2,11.2-0.7c3.3,0.8,5,3.2,5,7.5c0,5.3-3,9.6-8.7,13.3c-4.2,2.8-8.6,4.6-18.6,8.4l-0.4,0.1
	l-3,1.2c-4,1.6-7,3.3-12.3,7.1l-1.1,0.8c-10.8,7.8-17.7,10.5-30.4,10.5c-6.6,0-9.1-2.6-7.6-7.4c1.2-3.7,4.7-8.7,10.3-14.6
	c1.7-1.8,3.4-3.7,5.4-5.7c4.2-4.1,14.8-14,15-14.2c0.7-0.7,1.2-1.2,1.8-1.7c4.5-3.6,7.6-4.1,18.7-3.8
	C329.4,510.7,330.7,510.7,332.1,510.7L332.1,510.7z M332.1,512c-1.4,0-2.8,0-5,0c-10.8-0.1-13.7,0.3-17.8,3.6
	c-0.5,0.5-1.2,0.9-1.7,1.6c-0.3,0.3-10.9,10.1-15,14.2c-1.8,1.8-3.7,3.7-5.4,5.7c-5.4,5.9-9,10.7-10,14.2c-1.2,3.8,0.5,5.7,6.3,5.7
	c12.5,0,19-2.8,29.7-10.3l1.1-0.8c5.4-4,8.4-5.8,12.7-7.4l3-1.2l0.3-0.1c9.9-3.7,14.2-5.5,18.4-8.3c5.4-3.4,8.2-7.4,8.2-12.3
	c0-3.8-1.3-5.7-4-6.2c-2.1-0.5-4-0.3-10.7,0.7C337.5,511.7,334.9,512,332.1,512L332.1,512z M480.4,452.3c-2.5,7.1-2.6,9-1.3,16.9
	c1.6,9.4-1.8,21.9-7.2,21.9c-0.7,0-1.3,0-2,0.1h-0.8c-3.8,0.3-6.3,0.3-9.1-0.3c-8.6-1.4-13.7-6.7-13.7-17.7c0-18.3,2.8-26,10.7-34.7
	c1.3-1.6,2.4-3.2,3.3-5c0.8-1.3,3.7-6.7,3.6-6.6c5.8-10.7,10.1-15.2,16.1-13.7c1.6,0.4,2.9,1.1,4.7,2.1l1.8,1.1
	c1.3,0.8,2.6,1.6,4.1,2.1c0.9,0.4,2.4,0.4,6.3,0.4h0.9c4.2,0,6.3,0.1,7.6,0.9c2.1,1.2,1.6,3.4-1.4,6.5c-1.7,1.7-3.4,3.3-5.1,5
	C484.9,444.4,482,447.4,480.4,452.3L480.4,452.3z M479.1,451.8c1.7-5.1,4.6-8.2,18.8-21.7c2-2,3.6-3.4,5.1-4.9
	c2.5-2.6,2.9-3.8,1.8-4.3c-1.1-0.7-3.2-0.8-7-0.7H497c-4.1,0.1-5.7,0-6.7-0.4c-1.4-0.5-2.6-1.2-4.2-2.2l-1.8-1.1
	c-1.3-0.9-2.8-1.4-4.3-2c-5.1-1.3-9.1,2.9-14.6,13c0.1-0.1-2.8,5.3-3.6,6.6c-0.9,1.8-2.1,3.6-3.4,5.1c-7.6,8.6-10.4,15.8-10.4,33.9
	c0,10.3,4.6,15.2,12.7,16.5c2.6,0.4,5.1,0.4,8.8,0.3c0.5,0,1.1,0,1.6-0.1c0.5,0,0.9,0,1.3,0c4.2,0,7.4-11.7,5.9-20.3
	C476.4,461.1,476.6,459.1,479.1,451.8L479.1,451.8z M467,468.2c0.8,0.7,3.3,2.5,3.3,2.5c2.6,2.1,2.6,4.3,0,8.4
	c-4.9,7.4-11.6,4.1-11.6-5.9c0-5,0.7-7.5,2.8-7.9C462.9,464.8,464.1,465.6,467,468.2L467,468.2z M465.1,470.1
	c-2-1.8-2.9-2.5-3.2-2.4c-0.3,0-0.7,1.6-0.7,5.4c0,7.8,3.6,9.5,6.9,4.6c2-3,2-3.7,0.5-4.9C468.7,472.9,466,471,465.1,470.1
	L465.1,470.1z M758.8,298.6c2.9-1.4,4.9-2.2,7.8-3.2l0.4-0.1c4-1.2,7.9-2.8,11.6-4.7c5.5-2.8,8.3-2.5,9.2,1.1
	c0.5,2.6,0.3,5.3-1.6,16.7c-3,17.9-12.1,34.4-27.9,47.8c-5.7,4.7-9.8,5.8-12.9,3.2c-2.5-2.1-4.1-6.1-6.1-13.8
	c-0.4-1.4-1.8-7.6-2.2-9.2c-1.1-4.1-2.2-8.2-3.6-12.1c-3.2-9-4-14.2-2.8-17c1.1-2.4,2.8-2.9,7.4-3.2c2-0.1,2.8-0.1,4-0.4l2.6-0.4
	c0.9-0.1,1.6-0.3,2.2-0.4c1.4-0.3,2.5-0.5,3.6-0.8C752.5,301.5,754.9,300.6,758.8,298.6L758.8,298.6z M759.5,299.8
	c-4.1,2-6.5,3-8.8,3.7c-1.1,0.3-2.2,0.5-3.7,0.8c-1.7,0.3-3.3,0.5-5,0.8c-1.1,0.1-1.8,0.3-3.8,0.4c-4.1,0.3-5.5,0.7-6.2,2.5
	c-1.1,2.4-0.3,7.4,2.8,16.1c1.3,4.1,2.6,8.2,3.6,12.3l2.2,9.2c2,7.5,3.4,11.3,5.7,13.2c2.5,2.1,5.9,1.2,11.2-3.2
	c15.5-13.2,24.5-29.4,27.4-47c1.8-11.1,2.2-13.8,1.6-16.2c-0.5-2.5-2.5-2.6-7.2-0.3c-3.8,2-7.6,3.6-11.7,4.7l-0.4,0.1
	C764.4,297.5,761.9,298.5,759.5,299.8z M753.6,308.4c1.8-0.4,3.3-1.1,5.1-1.8c0.4-0.3,3.4-1.7,4.3-2.2c2-0.9,4-1.7,6.2-2.5
	c3.6-1.2,6.1-1.1,7.8,0.5c1.3,1.2,1.7,3,1.8,5.5c0,0.5,0,0.9,0,1.8c0,7.4-6.1,22.3-14.9,30c-5.7,5-9.6,6.2-13,3.3
	c-2.8-2.2-4.6-6.1-8.8-17c-2.5-6.3-2.6-10.7-0.9-13.4c1.4-2.2,3.8-3.2,7.6-3.6l1.7-0.1C752.1,308.7,752.8,308.5,753.6,308.4
	L753.6,308.4z M750.8,311.4l-1.6,0.1c-3.2,0.4-4.9,1.1-5.8,2.4c-1.2,1.8-1.1,5.4,1.2,11.1c4,10.3,5.8,14.1,8,15.9
	c2.1,1.7,4.7,1.1,9.6-3.3c8.3-7.2,14.1-21.3,14.1-27.9c0-0.8,0-1.2,0-1.7c0-1.8-0.4-3-1.1-3.7c-0.8-0.8-2.4-0.8-5.1,0
	c-2,0.7-4,1.4-5.9,2.4c-0.9,0.4-3.8,2-4.3,2.2c-1.8,0.9-3.7,1.6-5.7,2.1C753.3,311.2,752.5,311.3,750.8,311.4L750.8,311.4z
	 M450.6,194.3c-2.1,5.7-4.6,9.5-9.4,15l-3.4,4c-1.2,1.3-2.4,2.8-3.4,4.2c-2.4,3-4.5,6.5-6.2,9.9c-3.8,7.5-9.4,13.4-17,18.3
	c-5.5,3.7-10.8,6.1-20.7,10c-14.5,5.8-21.6,1.7-35.8-21.6c-3.8-6.2-11.6-11.3-23.7-16.7c-4-1.7-17-6.9-19-7.8
	c-6.6-2.9-9.2-4.9-8.4-7.8c0.9-3,7-5.4,20.4-8c21.9-4.3,35.4-5,52.6-4c10.4,0.7,12.8,0.7,16.7-0.4c2.6-0.7,5.1-1.7,7.9-3.4l3.7-2.2
	c13-8,17-10.5,22.8-13c7.9-3.6,14-4.3,18.3-1.8C455.6,174.2,456.3,179,450.6,194.3L450.6,194.3z M448.2,193.4
	c5.3-14.1,4.7-17.5-3.4-22.1c-3.6-2-8.7-1.3-15.9,2c-5.5,2.5-9.6,4.9-22.5,12.9l-3.7,2.2c-2.6,1.7-5.5,2.9-8.7,3.7
	c-4.5,1.1-6.9,1.1-17.5,0.4c-16.9-1.1-30.3-0.4-51.9,4c-6.5,1.3-11.1,2.5-14.2,3.7c-2.6,1.1-4,1.8-4.2,2.5c-0.3,0.8,2,2.4,7,4.6
	c2,0.9,15,6.1,19,7.8c12.5,5.5,20.7,10.9,24.9,17.7c13.7,22.3,19.6,25.8,32.7,20.6c9.6-3.8,14.8-6.3,20.2-9.8
	c7.1-4.6,12.5-10.3,15.9-17.3c1.8-3.8,4-7.1,6.5-10.3c1.2-1.4,2.4-2.9,3.6-4.3l3.4-4C443.8,202.2,446.3,198.6,448.2,193.4
	L448.2,193.4z M439.4,192.8C429,209.7,415,221.6,395.5,226c-10.3,2.4-16.5-1.1-17.3-7.8c-0.7-5.8,3-12,7.9-12c4,0,7.4-2.2,20.3-12.1
	c2-1.4,3.4-2.6,4.9-3.6c5.8-4.2,10.3-6.9,14.2-8c7.4-2.2,12.3-2.8,15-1.6C443.8,182.4,443.4,186.4,439.4,192.8L439.4,192.8z
	 M438.4,192c3.6-5.8,3.8-8.8,1.6-9.9c-2.2-1.1-7-0.4-14,1.7c-3.8,1.2-8.2,3.7-13.8,7.8c-1.4,1.1-2.9,2.1-4.7,3.6
	c-13.3,10.1-16.6,12.4-21.1,12.4c-4,0-7.2,5.3-6.6,10.4c0.8,5.9,6.1,9,15.7,6.7C414.4,220.2,428.1,208.6,438.4,192L438.4,192z
	 M607.8,44.2c18.3,6.6,27.4,6.6,41.6,0c4-1.8,7.2-3.8,14.5-9c7.4-5.1,10.5-7.2,14.6-9.1c5.4-2.5,10.3-3.2,14.8-1.7
	c5.1,1.7,8.2,16.2,9,37.6c0.7,18.7-0.7,38.1-3.3,45.1c-2.4,6.5-7.8,10.8-15.2,13.2c-5.5,1.7-11.3,2.5-17.1,2.4
	c-7.6,0-11.9,3.2-16.1,10c-0.5,0.8-2,3.4-2.2,3.8c-2.4,3.8-4,5.7-6.5,6.5c-1.2,0.4-2.8,1.1-5.1,2.2l-3.2,1.6
	c-1.3,0.7-2.5,1.2-3.6,1.7c-8.4,4.1-15.4,6.2-22.7,6.2c-7.5,0-13.2,2.8-18.4,7.8c-1.6,1.4-5.5,5.9-6.1,6.5c-3.3,3.2-7.8,5.5-14.4,8
	c-1.8,0.7-7.9,2.8-8.2,2.9l-2.8,1.1c-1.2,0.5-2.4,0.8-3.6,1.1c-7.2,1.4-14.6-0.7-23.7-5.8c-1.7-0.9-6.7-4.1-7.6-4.5
	c-2.6-1.6-5.4-2-12-2.5l-2.2-0.1c-6.3-0.5-10.1-1.4-13.4-4c-6.6-4.7-9-10.3-7.4-16.2c1.7-7.1,8.6-14.5,19.6-22.8
	c2.8-2.1,5.7-4.1,8.6-6.1c-0.4,0.3,5.7-3.8,7-4.7c3.6-2.5,6.3-5.1,16.9-15.8l1.4-1.4c4.6-4.7,7.8-7.8,10.7-10.3
	c3.8-3.3,6.2-7.9,9.9-17.1l0.8-2.1c3.6-9.1,5.7-13.2,9.1-16.2c1.8-1.7,8.8-8.6,10.4-9.9C587.3,38.4,592.5,38.8,607.8,44.2
	L607.8,44.2z M607.3,45.5c-14.9-5.3-19.8-5.7-24.5-2c-1.6,1.2-8.4,8-10.4,9.8c-3.2,2.9-5.3,6.9-8.7,15.8l-0.8,2.1
	c-3.7,9.6-6.2,14.2-10.3,17.7c-4.2,3.7-8.2,7.6-12.1,11.7c-10.5,10.8-13.3,13.4-17,16.1c-1.3,0.9-7.4,5-7,4.7
	c-3.3,2.2-5.9,4.1-8.6,6.1c-10.8,8-17.4,15.3-19.1,22c-1.3,5.5,0.8,10.4,7,14.9c3.2,2.2,6.7,3.2,12.8,3.7l2.2,0.1
	c6.7,0.5,9.6,1.1,12.5,2.6c0.8,0.5,5.9,3.6,7.6,4.5c8.8,5,15.8,7.1,22.8,5.7c1.2-0.3,2.2-0.5,3.3-1.1c0.9-0.4,1.8-0.7,2.8-1.1
	c0.4-0.1,6.5-2.2,8.2-2.9c6.3-2.4,10.7-4.7,13.8-7.8c0.5-0.5,4.5-5,6.1-6.5c5.5-5.3,11.5-8.2,19.4-8.2c6.9,0,13.7-2.1,22-6.1
	c1.1-0.5,2.1-1.1,3.6-1.7c0.1-0.1,2.5-1.3,3.2-1.6c2.4-1.2,4-2,5.3-2.4c2.1-0.7,3.7-2.4,5.8-5.9l2.2-3.8c4.5-7.2,9.1-10.7,17.3-10.7
	c5.9,0,11.5-0.7,16.6-2.4c7.1-2.4,12.1-6.3,14.4-12.4c2.5-6.7,3.8-26.1,3.2-44.5c-0.8-20.4-3.7-34.9-8-36.2
	c-4.2-1.3-8.7-0.7-13.8,1.6c-4,1.8-7.2,3.8-14.5,9c-7.4,5.1-10.5,7.2-14.6,9.1C635.4,52.1,626,52.1,607.3,45.5L607.3,45.5z
	 M626,72.5c7.1,0,9.9-0.3,12.8-1.3c1.7-0.5,13.2-6.3,19.6-9.2c2.5-1.1,4.7-3.2,8.7-7.9c3.4-4,4.2-5,5.8-6.3
	c4.9-4.3,9.4-4.3,13.4,1.6c8.2,11.7,7.4,21,0.1,35.6c-1.2,2.4-2.2,4.7-3.3,7.2c-0.4,1.1-1.3,3.6-1.4,3.8c-0.3,0.5-0.4,1.1-0.7,1.6
	c-0.8,1.4-2.1,2.9-5.3,6.2c-3.2,3.2-6.9,4.3-15.4,5.7c-2.4,0.4-2.9,0.5-4,0.7c-7.9,1.4-12.7,3.6-16.1,8c-4.7,6.1-10.4,9.9-19.8,14.1
	c-0.7,0.3-1.4,0.7-2.4,1.1l-2.4,1.1c-3.6,1.4-6.9,3.2-10.1,5.1c-3.4,2.1-6.3,3-12.4,4.6c-11.3,2.8-16.2,5-22.9,12.4
	c-6.7,7.4-13.4,10-21.9,8.8c-7.1-1.1-14-4-31.1-12.5c-8.3-4.2-8.4-10.3-2-17.9c4.5-5.1,4.6-5.4,25.6-21.6
	c10.7-8.3,17.1-14,21.9-19.6c3.3-4,5.5-7.5,6.6-10.9c7.2-24.1,16.5-29,30-20.6c2.6,1.6,8.7,5.9,9.5,6.5
	C613.4,71.5,617.4,72.5,626,72.5z M626,75.1c-9,0-13.7-1.2-18.6-4.3c-0.8-0.5-7-4.9-9.5-6.5c-11.9-7.5-19.4-3.6-26.1,19.1
	c-1.2,3.8-3.6,7.6-7.1,11.9c-5,5.8-11.5,11.6-22.3,20c-20.7,16.1-21,16.3-25.2,21.3c-5.5,6.5-5.4,10.5,1.2,13.8
	c16.7,8.3,23.6,11.2,30.2,12.3c7.6,1.1,13.4-1.2,19.6-8c7.1-7.9,12.5-10.3,24.2-13.2c5.8-1.4,8.6-2.4,11.6-4.2
	c3.3-2,6.9-3.8,10.4-5.3l2.4-1.1l2.4-1.1c9-4.1,14.4-7.8,18.7-13.3c4-5.1,9.2-7.4,17.8-9c1.1-0.3,1.6-0.3,4-0.7c8-1.3,11.3-2.4,14-5
	c3.2-3.2,4.2-4.3,4.9-5.7c0.3-0.4,0.4-0.8,0.5-1.2c0.1-0.3,1.1-2.8,1.4-3.8c0.8-2.1,2-4.5,3.4-7.4c6.9-13.8,7.6-22.1,0.1-32.9
	c-3.2-4.5-5.8-4.6-9.5-1.2c-1.4,1.3-2.2,2.2-5.5,6.2c-4.2,5-6.6,7.4-9.6,8.7c-6.3,2.8-17.9,8.6-19.8,9.2
	C636.4,74.9,633.4,75.1,626,75.1z M609.3,86.5c7.2,5.1,13.6,4.9,24,1.2c7.1-2.5,7.8-2.8,10.1-2.8c3.3,0,5.5,1.8,6.9,5.9
	c2.2,6.6-3,11.2-16.2,16.7c-3.6,1.4-21.3,8.2-26.4,10.1c-10.4,4.2-18.3,8.4-24.9,13.4c-17.1,12.9-24.2,15.7-31.2,12.8
	c-1.7-0.8-3.3-1.6-4.7-2.6l-2.6-1.7c-0.9-0.7-2-1.2-2.9-1.8c-4.3-2.6-3.7-5.7,1.2-9.6c1.8-1.4,14.1-10,17.8-13
	c9.4-7.5,15.7-15.2,19-24.1c4.1-11.2,6.5-15.9,9-17.7c2.2-1.6,4.5-0.7,8.2,2.5c0.8,0.8,4.5,4.1,5.4,4.9
	C604.4,82.7,606.6,84.6,609.3,86.5L609.3,86.5z M608.5,87.5c-2.6-1.8-5-3.8-7.5-6.1c-0.9-0.8-4.6-4.2-5.4-4.9
	c-3.3-2.9-5-3.6-6.6-2.4c-2.2,1.4-4.5,6.2-8.4,17c-3.4,9.4-9.9,17.1-19.4,24.8c-3.8,3-16.1,11.6-17.8,13c-4.2,3.6-4.7,5.5-1.3,7.5
	l3,1.8l2.6,1.7c2,1.2,3.3,2,4.6,2.5c6.5,2.8,13.2,0.1,29.9-12.7c6.6-5,14.6-9.2,25.2-13.6c5-2.1,22.8-8.7,26.4-10.1
	c12.5-5.3,17.3-9.5,15.4-15c-1.2-3.6-2.9-5-5.7-5c-2.1,0-2.8,0.3-9.8,2.8C623,92.8,616.1,93.1,608.5,87.5L608.5,87.5z"/>
</svg>
